<svg width="245" height="120" viewBox="0 0 245 120" fill="none" xmlns="http://www.w3.org/2000/svg">
<path d="M138.5 29H106.5V32H138.5V29Z" fill="black" fill-opacity="0.18"/>
<path d="M138.5 38H106.5V41H138.5V38Z" fill="black" fill-opacity="0.18"/>
<path d="M124.5 47H106.5V50H124.5V47Z" fill="black" fill-opacity="0.18"/>
<path fill-rule="evenodd" clip-rule="evenodd" d="M102.935 67.1176L90.5 76V18C90.5 14.6863 93.1863 12 96.5 12H148.5C151.814 12 154.5 14.6863 154.5 18V60C154.5 63.3137 151.814 66 148.5 66H106.423C105.172 66 103.953 66.3907 102.935 67.1176ZM96.5 15H148.5C150.157 15 151.5 16.3431 151.5 18V60C151.5 61.6569 150.157 63 148.5 63H106.423C104.547 63 102.718 63.5861 101.192 64.6764L93.5 70.1704V18C93.5 16.3431 94.8431 15 96.5 15Z" fill="black" fill-opacity="0.18"/>
<path d="M6.018 102.28C6.96733 102.28 7.78867 102.461 8.482 102.824C9.17533 103.176 9.762 103.699 10.242 104.392L9.09 105.496C8.68467 104.877 8.226 104.435 7.714 104.168C7.21267 103.891 6.61533 103.752 5.922 103.752C5.41 103.752 4.98867 103.821 4.658 103.96C4.32733 104.099 4.082 104.285 3.922 104.52C3.77267 104.744 3.698 105 3.698 105.288C3.698 105.619 3.81 105.907 4.034 106.152C4.26867 106.397 4.70067 106.589 5.33 106.728L7.474 107.208C8.498 107.432 9.22333 107.773 9.65 108.232C10.0767 108.691 10.29 109.272 10.29 109.976C10.29 110.627 10.114 111.192 9.762 111.672C9.41 112.152 8.91933 112.52 8.29 112.776C7.67133 113.032 6.94067 113.16 6.098 113.16C5.35133 113.16 4.67933 113.064 4.082 112.872C3.48467 112.68 2.962 112.419 2.514 112.088C2.066 111.757 1.698 111.379 1.41 110.952L2.594 109.768C2.818 110.141 3.10067 110.477 3.442 110.776C3.78333 111.064 4.178 111.288 4.626 111.448C5.08467 111.608 5.59133 111.688 6.146 111.688C6.63667 111.688 7.058 111.629 7.41 111.512C7.77267 111.395 8.04467 111.224 8.226 111C8.418 110.765 8.514 110.488 8.514 110.168C8.514 109.859 8.40733 109.587 8.194 109.352C7.99133 109.117 7.60733 108.936 7.042 108.808L4.722 108.28C4.082 108.141 3.554 107.944 3.138 107.688C2.722 107.432 2.41267 107.123 2.21 106.76C2.00733 106.387 1.906 105.971 1.906 105.512C1.906 104.915 2.066 104.376 2.386 103.896C2.71667 103.405 3.19133 103.016 3.81 102.728C4.42867 102.429 5.16467 102.28 6.018 102.28ZM15.6136 113.16C14.8136 113.16 14.1096 112.995 13.5016 112.664C12.8936 112.333 12.419 111.859 12.0776 111.24C11.747 110.611 11.5816 109.864 11.5816 109C11.5816 108.136 11.747 107.395 12.0776 106.776C12.419 106.147 12.8883 105.667 13.4856 105.336C14.083 105.005 14.7603 104.84 15.5176 104.84C16.2963 104.84 16.9576 105 17.5016 105.32C18.0456 105.64 18.4616 106.077 18.7496 106.632C19.0376 107.187 19.1816 107.816 19.1816 108.52C19.1816 108.712 19.1763 108.893 19.1656 109.064C19.155 109.235 19.139 109.384 19.1176 109.512H12.6856V108.2H18.3656L17.5176 108.456C17.5176 107.731 17.3363 107.176 16.9736 106.792C16.611 106.397 16.115 106.2 15.4856 106.2C15.027 106.2 14.627 106.307 14.2856 106.52C13.9443 106.733 13.683 107.053 13.5016 107.48C13.3203 107.896 13.2296 108.408 13.2296 109.016C13.2296 109.613 13.3256 110.12 13.5176 110.536C13.7096 110.952 13.9816 111.267 14.3336 111.48C14.6856 111.693 15.1016 111.8 15.5816 111.8C16.115 111.8 16.547 111.699 16.8776 111.496C17.2083 111.293 17.4696 111.011 17.6616 110.648L19.0216 111.288C18.8296 111.672 18.5683 112.008 18.2376 112.296C17.9176 112.573 17.5336 112.787 17.0856 112.936C16.6376 113.085 16.147 113.16 15.6136 113.16ZM22.6576 101.4V110.76C22.6576 111.155 22.727 111.427 22.8656 111.576C23.0043 111.725 23.2336 111.8 23.5536 111.8C23.7456 111.8 23.9056 111.789 24.0336 111.768C24.1723 111.736 24.343 111.683 24.5456 111.608L24.3536 112.888C24.1723 112.973 23.9643 113.037 23.7296 113.08C23.495 113.133 23.2603 113.16 23.0256 113.16C22.311 113.16 21.783 112.979 21.4416 112.616C21.111 112.243 20.9456 111.672 20.9456 110.904V101.4H22.6576ZM29.148 113.16C28.348 113.16 27.644 112.995 27.036 112.664C26.428 112.333 25.9533 111.859 25.612 111.24C25.2813 110.611 25.116 109.864 25.116 109C25.116 108.136 25.2813 107.395 25.612 106.776C25.9533 106.147 26.4227 105.667 27.02 105.336C27.6173 105.005 28.2947 104.84 29.052 104.84C29.8307 104.84 30.492 105 31.036 105.32C31.58 105.64 31.996 106.077 32.284 106.632C32.572 107.187 32.716 107.816 32.716 108.52C32.716 108.712 32.7107 108.893 32.7 109.064C32.6893 109.235 32.6733 109.384 32.652 109.512H26.22V108.2H31.9L31.052 108.456C31.052 107.731 30.8707 107.176 30.508 106.792C30.1453 106.397 29.6493 106.2 29.02 106.2C28.5613 106.2 28.1613 106.307 27.82 106.52C27.4787 106.733 27.2173 107.053 27.036 107.48C26.8547 107.896 26.764 108.408 26.764 109.016C26.764 109.613 26.86 110.12 27.052 110.536C27.244 110.952 27.516 111.267 27.868 111.48C28.22 111.693 28.636 111.8 29.116 111.8C29.6493 111.8 30.0813 111.699 30.412 111.496C30.7427 111.293 31.004 111.011 31.196 110.648L32.556 111.288C32.364 111.672 32.1027 112.008 31.772 112.296C31.452 112.573 31.068 112.787 30.62 112.936C30.172 113.085 29.6813 113.16 29.148 113.16ZM37.984 104.84C38.624 104.84 39.168 104.936 39.616 105.128C40.0747 105.309 40.4587 105.571 40.768 105.912C41.0773 106.253 41.312 106.643 41.472 107.08L39.856 107.72C39.7173 107.229 39.4933 106.856 39.184 106.6C38.8853 106.333 38.4907 106.2 38 106.2C37.52 106.2 37.1093 106.312 36.768 106.536C36.4267 106.749 36.1653 107.064 35.984 107.48C35.8133 107.896 35.728 108.408 35.728 109.016C35.728 109.613 35.8187 110.12 36 110.536C36.1813 110.952 36.4427 111.267 36.784 111.48C37.1253 111.693 37.5307 111.8 38 111.8C38.3627 111.8 38.6773 111.741 38.944 111.624C39.2107 111.496 39.4293 111.32 39.6 111.096C39.7813 110.861 39.904 110.579 39.968 110.248L41.52 110.776C41.3707 111.256 41.136 111.677 40.816 112.04C40.5067 112.392 40.1173 112.669 39.648 112.872C39.1787 113.064 38.64 113.16 38.032 113.16C37.2427 113.16 36.544 112.995 35.936 112.664C35.328 112.333 34.8533 111.859 34.512 111.24C34.1813 110.611 34.016 109.864 34.016 109C34.016 108.136 34.1813 107.395 34.512 106.776C34.8533 106.147 35.3227 105.667 35.92 105.336C36.528 105.005 37.216 104.84 37.984 104.84ZM45.4984 102.648V110.6C45.4984 110.995 45.5997 111.283 45.8024 111.464C46.0157 111.645 46.2984 111.736 46.6504 111.736C46.9384 111.736 47.189 111.693 47.4024 111.608C47.6157 111.512 47.813 111.384 47.9944 111.224L48.3784 112.472C48.133 112.685 47.829 112.856 47.4664 112.984C47.1144 113.101 46.7197 113.16 46.2824 113.16C45.8237 113.16 45.4024 113.085 45.0184 112.936C44.6344 112.787 44.3357 112.547 44.1224 112.216C43.909 111.875 43.797 111.432 43.7864 110.888V103.128L45.4984 102.648ZM48.2504 105V106.344H42.2504V105H48.2504ZM59.0707 107.864C59.0707 107.331 58.9214 106.92 58.6227 106.632C58.3347 106.333 57.9347 106.184 57.4227 106.184C56.9427 106.184 56.5321 106.296 56.1907 106.52C55.8494 106.744 55.5987 107.107 55.4387 107.608L53.9987 107C54.2014 106.349 54.5961 105.827 55.1827 105.432C55.7801 105.037 56.5481 104.84 57.4867 104.84C58.1267 104.84 58.6921 104.947 59.1827 105.16C59.6734 105.363 60.0574 105.672 60.3347 106.088C60.6227 106.504 60.7667 107.037 60.7667 107.688V111.256C60.7667 111.651 60.9641 111.848 61.3587 111.848C61.5507 111.848 61.7374 111.821 61.9187 111.768L61.8227 112.952C61.5774 113.069 61.2681 113.128 60.8947 113.128C60.5534 113.128 60.2441 113.069 59.9667 112.952C59.7001 112.824 59.4867 112.637 59.3267 112.392C59.1774 112.136 59.1027 111.821 59.1027 111.448V111.336L59.4547 111.32C59.3587 111.736 59.1614 112.083 58.8627 112.36C58.5641 112.627 58.2174 112.829 57.8227 112.968C57.4281 113.096 57.0281 113.16 56.6227 113.16C56.1214 113.16 55.6681 113.08 55.2627 112.92C54.8681 112.76 54.5534 112.52 54.3187 112.2C54.0947 111.869 53.9827 111.464 53.9827 110.984C53.9827 110.387 54.1747 109.896 54.5587 109.512C54.9534 109.128 55.5081 108.867 56.2227 108.728L59.3267 108.12L59.3107 109.32L57.0547 109.784C56.6067 109.869 56.2707 109.992 56.0467 110.152C55.8227 110.312 55.7107 110.547 55.7107 110.856C55.7107 111.155 55.8227 111.395 56.0467 111.576C56.2814 111.747 56.5907 111.832 56.9747 111.832C57.2414 111.832 57.4974 111.8 57.7427 111.736C57.9987 111.672 58.2281 111.571 58.4307 111.432C58.6334 111.283 58.7881 111.096 58.8947 110.872C59.0121 110.637 59.0707 110.36 59.0707 110.04V107.864ZM71.2184 104.84C71.8584 104.84 72.4024 104.936 72.8504 105.128C73.309 105.309 73.693 105.571 74.0024 105.912C74.3117 106.253 74.5464 106.643 74.7064 107.08L73.0904 107.72C72.9517 107.229 72.7277 106.856 72.4184 106.6C72.1197 106.333 71.725 106.2 71.2344 106.2C70.7544 106.2 70.3437 106.312 70.0024 106.536C69.661 106.749 69.3997 107.064 69.2184 107.48C69.0477 107.896 68.9624 108.408 68.9624 109.016C68.9624 109.613 69.053 110.12 69.2344 110.536C69.4157 110.952 69.677 111.267 70.0184 111.48C70.3597 111.693 70.765 111.8 71.2344 111.8C71.597 111.8 71.9117 111.741 72.1784 111.624C72.445 111.496 72.6637 111.32 72.8344 111.096C73.0157 110.861 73.1384 110.579 73.2024 110.248L74.7544 110.776C74.605 111.256 74.3704 111.677 74.0504 112.04C73.741 112.392 73.3517 112.669 72.8824 112.872C72.413 113.064 71.8744 113.16 71.2664 113.16C70.477 113.16 69.7784 112.995 69.1704 112.664C68.5624 112.333 68.0877 111.859 67.7464 111.24C67.4157 110.611 67.2504 109.864 67.2504 109C67.2504 108.136 67.4157 107.395 67.7464 106.776C68.0877 106.147 68.557 105.667 69.1544 105.336C69.7624 105.005 70.4504 104.84 71.2184 104.84ZM76.3967 113V101.4H78.1087V106.28C78.3754 105.779 78.7327 105.416 79.1807 105.192C79.6394 104.957 80.1461 104.84 80.7007 104.84C81.2661 104.84 81.7727 104.952 82.2207 105.176C82.6794 105.389 83.0421 105.715 83.3087 106.152C83.5754 106.589 83.7087 107.144 83.7087 107.816V113H81.9967V108.36C81.9967 107.571 81.8314 107.021 81.5007 106.712C81.1807 106.403 80.7754 106.248 80.2847 106.248C79.9434 106.248 79.6021 106.333 79.2607 106.504C78.9301 106.664 78.6527 106.931 78.4287 107.304C78.2154 107.667 78.1087 108.157 78.1087 108.776V113H76.3967ZM90.577 107.864C90.577 107.331 90.4277 106.92 90.129 106.632C89.841 106.333 89.441 106.184 88.929 106.184C88.449 106.184 88.0383 106.296 87.697 106.52C87.3557 106.744 87.105 107.107 86.945 107.608L85.505 107C85.7077 106.349 86.1023 105.827 86.689 105.432C87.2863 105.037 88.0543 104.84 88.993 104.84C89.633 104.84 90.1983 104.947 90.689 105.16C91.1797 105.363 91.5637 105.672 91.841 106.088C92.129 106.504 92.273 107.037 92.273 107.688V111.256C92.273 111.651 92.4703 111.848 92.865 111.848C93.057 111.848 93.2437 111.821 93.425 111.768L93.329 112.952C93.0837 113.069 92.7743 113.128 92.401 113.128C92.0597 113.128 91.7503 113.069 91.473 112.952C91.2063 112.824 90.993 112.637 90.833 112.392C90.6837 112.136 90.609 111.821 90.609 111.448V111.336L90.961 111.32C90.865 111.736 90.6677 112.083 90.369 112.36C90.0703 112.627 89.7237 112.829 89.329 112.968C88.9343 113.096 88.5343 113.16 88.129 113.16C87.6277 113.16 87.1743 113.08 86.769 112.92C86.3743 112.76 86.0597 112.52 85.825 112.2C85.601 111.869 85.489 111.464 85.489 110.984C85.489 110.387 85.681 109.896 86.065 109.512C86.4597 109.128 87.0143 108.867 87.729 108.728L90.833 108.12L90.817 109.32L88.561 109.784C88.113 109.869 87.777 109.992 87.553 110.152C87.329 110.312 87.217 110.547 87.217 110.856C87.217 111.155 87.329 111.395 87.553 111.576C87.7877 111.747 88.097 111.832 88.481 111.832C88.7477 111.832 89.0037 111.8 89.249 111.736C89.505 111.672 89.7343 111.571 89.937 111.432C90.1397 111.283 90.2943 111.096 90.401 110.872C90.5183 110.637 90.577 110.36 90.577 110.04V107.864ZM96.7515 102.648V110.6C96.7515 110.995 96.8528 111.283 97.0555 111.464C97.2688 111.645 97.5515 111.736 97.9035 111.736C98.1915 111.736 98.4422 111.693 98.6555 111.608C98.8688 111.512 99.0662 111.384 99.2475 111.224L99.6315 112.472C99.3862 112.685 99.0822 112.856 98.7195 112.984C98.3675 113.101 97.9728 113.16 97.5355 113.16C97.0768 113.16 96.6555 113.085 96.2715 112.936C95.8875 112.787 95.5888 112.547 95.3755 112.216C95.1622 111.875 95.0502 111.432 95.0395 110.888V103.128L96.7515 102.648ZM99.5035 105V106.344H93.5035V105H99.5035ZM107.786 102.648V110.6C107.786 110.995 107.887 111.283 108.09 111.464C108.303 111.645 108.586 111.736 108.938 111.736C109.226 111.736 109.477 111.693 109.69 111.608C109.903 111.512 110.101 111.384 110.282 111.224L110.666 112.472C110.421 112.685 110.117 112.856 109.754 112.984C109.402 113.101 109.007 113.16 108.57 113.16C108.111 113.16 107.69 113.085 107.306 112.936C106.922 112.787 106.623 112.547 106.41 112.216C106.197 111.875 106.085 111.432 106.074 110.888V103.128L107.786 102.648ZM110.538 105V106.344H104.538V105H110.538ZM115.353 104.84C116.132 104.84 116.82 105.005 117.417 105.336C118.014 105.667 118.478 106.147 118.809 106.776C119.15 107.395 119.321 108.136 119.321 109C119.321 109.864 119.15 110.611 118.809 111.24C118.478 111.859 118.014 112.333 117.417 112.664C116.82 112.995 116.132 113.16 115.353 113.16C114.574 113.16 113.886 112.995 113.289 112.664C112.692 112.333 112.222 111.859 111.881 111.24C111.54 110.611 111.369 109.864 111.369 109C111.369 108.136 111.54 107.395 111.881 106.776C112.222 106.147 112.692 105.667 113.289 105.336C113.886 105.005 114.574 104.84 115.353 104.84ZM115.353 106.184C114.873 106.184 114.462 106.296 114.121 106.52C113.79 106.733 113.534 107.048 113.353 107.464C113.172 107.88 113.081 108.392 113.081 109C113.081 109.597 113.172 110.109 113.353 110.536C113.534 110.952 113.79 111.272 114.121 111.496C114.462 111.709 114.873 111.816 115.353 111.816C115.833 111.816 116.238 111.709 116.569 111.496C116.9 111.272 117.156 110.952 117.337 110.536C117.518 110.109 117.609 109.597 117.609 109C117.609 108.392 117.518 107.88 117.337 107.464C117.156 107.048 116.9 106.733 116.569 106.52C116.238 106.296 115.833 106.184 115.353 106.184ZM129.018 113.16C128.218 113.16 127.487 113.005 126.826 112.696C126.165 112.387 125.642 111.949 125.258 111.384L126.442 110.36C126.677 110.797 127.013 111.149 127.45 111.416C127.898 111.672 128.431 111.8 129.05 111.8C129.541 111.8 129.93 111.715 130.218 111.544C130.506 111.373 130.65 111.133 130.65 110.824C130.65 110.621 130.581 110.445 130.442 110.296C130.314 110.136 130.063 110.013 129.69 109.928L128.01 109.576C127.157 109.405 126.549 109.133 126.186 108.76C125.823 108.376 125.642 107.891 125.642 107.304C125.642 106.867 125.77 106.461 126.026 106.088C126.282 105.715 126.655 105.416 127.146 105.192C127.647 104.957 128.245 104.84 128.938 104.84C129.738 104.84 130.421 104.984 130.986 105.272C131.551 105.549 131.983 105.949 132.282 106.472L131.098 107.464C130.895 107.037 130.597 106.723 130.202 106.52C129.807 106.307 129.397 106.2 128.97 106.2C128.629 106.2 128.335 106.243 128.09 106.328C127.845 106.413 127.658 106.531 127.53 106.68C127.402 106.829 127.338 107.005 127.338 107.208C127.338 107.421 127.418 107.608 127.578 107.768C127.738 107.928 128.026 108.051 128.442 108.136L130.266 108.52C131.034 108.669 131.573 108.925 131.882 109.288C132.202 109.64 132.362 110.072 132.362 110.584C132.362 111.096 132.229 111.549 131.962 111.944C131.695 112.328 131.311 112.627 130.81 112.84C130.309 113.053 129.711 113.16 129.018 113.16ZM136.433 102.648V110.6C136.433 110.995 136.534 111.283 136.737 111.464C136.95 111.645 137.233 111.736 137.585 111.736C137.873 111.736 138.123 111.693 138.337 111.608C138.55 111.512 138.747 111.384 138.929 111.224L139.313 112.472C139.067 112.685 138.763 112.856 138.401 112.984C138.049 113.101 137.654 113.16 137.217 113.16C136.758 113.16 136.337 113.085 135.953 112.936C135.569 112.787 135.27 112.547 135.057 112.216C134.843 111.875 134.731 111.432 134.721 110.888V103.128L136.433 102.648ZM139.185 105V106.344H133.185V105H139.185ZM145.199 107.864C145.199 107.331 145.05 106.92 144.751 106.632C144.463 106.333 144.063 106.184 143.551 106.184C143.071 106.184 142.66 106.296 142.319 106.52C141.978 106.744 141.727 107.107 141.567 107.608L140.127 107C140.33 106.349 140.724 105.827 141.311 105.432C141.908 105.037 142.676 104.84 143.615 104.84C144.255 104.84 144.82 104.947 145.311 105.16C145.802 105.363 146.186 105.672 146.463 106.088C146.751 106.504 146.895 107.037 146.895 107.688V111.256C146.895 111.651 147.092 111.848 147.487 111.848C147.679 111.848 147.866 111.821 148.047 111.768L147.951 112.952C147.706 113.069 147.396 113.128 147.023 113.128C146.682 113.128 146.372 113.069 146.095 112.952C145.828 112.824 145.615 112.637 145.455 112.392C145.306 112.136 145.231 111.821 145.231 111.448V111.336L145.583 111.32C145.487 111.736 145.29 112.083 144.991 112.36C144.692 112.627 144.346 112.829 143.951 112.968C143.556 113.096 143.156 113.16 142.751 113.16C142.25 113.16 141.796 113.08 141.391 112.92C140.996 112.76 140.682 112.52 140.447 112.2C140.223 111.869 140.111 111.464 140.111 110.984C140.111 110.387 140.303 109.896 140.687 109.512C141.082 109.128 141.636 108.867 142.351 108.728L145.455 108.12L145.439 109.32L143.183 109.784C142.735 109.869 142.399 109.992 142.175 110.152C141.951 110.312 141.839 110.547 141.839 110.856C141.839 111.155 141.951 111.395 142.175 111.576C142.41 111.747 142.719 111.832 143.103 111.832C143.37 111.832 143.626 111.8 143.871 111.736C144.127 111.672 144.356 111.571 144.559 111.432C144.762 111.283 144.916 111.096 145.023 110.872C145.14 110.637 145.199 110.36 145.199 110.04V107.864ZM149.35 113V105H150.806L150.966 106.44C151.179 105.917 151.494 105.523 151.91 105.256C152.337 104.979 152.859 104.84 153.478 104.84C153.638 104.84 153.798 104.856 153.958 104.888C154.118 104.909 154.251 104.947 154.358 105L154.118 106.504C154.001 106.461 153.867 106.429 153.718 106.408C153.579 106.376 153.387 106.36 153.142 106.36C152.811 106.36 152.486 106.451 152.166 106.632C151.846 106.803 151.579 107.064 151.366 107.416C151.163 107.768 151.062 108.216 151.062 108.76V113H149.35ZM157.57 102.648V110.6C157.57 110.995 157.672 111.283 157.874 111.464C158.088 111.645 158.37 111.736 158.722 111.736C159.01 111.736 159.261 111.693 159.474 111.608C159.688 111.512 159.885 111.384 160.066 111.224L160.45 112.472C160.205 112.685 159.901 112.856 159.538 112.984C159.186 113.101 158.792 113.16 158.354 113.16C157.896 113.16 157.474 113.085 157.09 112.936C156.706 112.787 156.408 112.547 156.194 112.216C155.981 111.875 155.869 111.432 155.858 110.888V103.128L157.57 102.648ZM160.322 105V106.344H154.322V105H160.322ZM166.519 113V105H168.039L168.119 106.344C168.396 105.832 168.764 105.453 169.223 105.208C169.692 104.963 170.188 104.84 170.711 104.84C171.287 104.84 171.815 104.973 172.295 105.24C172.785 105.496 173.153 105.885 173.399 106.408C173.569 106.056 173.804 105.763 174.103 105.528C174.401 105.293 174.732 105.123 175.095 105.016C175.457 104.899 175.815 104.84 176.167 104.84C176.679 104.84 177.159 104.947 177.607 105.16C178.055 105.373 178.417 105.699 178.695 106.136C178.972 106.573 179.111 107.133 179.111 107.816V113H177.399V108.088C177.399 107.437 177.244 106.968 176.935 106.68C176.625 106.392 176.231 106.248 175.751 106.248C175.377 106.248 175.031 106.339 174.711 106.52C174.401 106.701 174.151 106.973 173.959 107.336C173.767 107.688 173.671 108.125 173.671 108.648V113H171.959V108.088C171.959 107.437 171.804 106.968 171.495 106.68C171.185 106.392 170.791 106.248 170.311 106.248C169.991 106.248 169.671 106.333 169.351 106.504C169.031 106.675 168.764 106.941 168.551 107.304C168.337 107.667 168.231 108.147 168.231 108.744V113H166.519ZM184.876 113.16C184.076 113.16 183.372 112.995 182.764 112.664C182.156 112.333 181.681 111.859 181.34 111.24C181.009 110.611 180.844 109.864 180.844 109C180.844 108.136 181.009 107.395 181.34 106.776C181.681 106.147 182.151 105.667 182.748 105.336C183.345 105.005 184.023 104.84 184.78 104.84C185.559 104.84 186.22 105 186.764 105.32C187.308 105.64 187.724 106.077 188.012 106.632C188.3 107.187 188.444 107.816 188.444 108.52C188.444 108.712 188.439 108.893 188.428 109.064C188.417 109.235 188.401 109.384 188.38 109.512H181.948V108.2H187.628L186.78 108.456C186.78 107.731 186.599 107.176 186.236 106.792C185.873 106.397 185.377 106.2 184.748 106.2C184.289 106.2 183.889 106.307 183.548 106.52C183.207 106.733 182.945 107.053 182.764 107.48C182.583 107.896 182.492 108.408 182.492 109.016C182.492 109.613 182.588 110.12 182.78 110.536C182.972 110.952 183.244 111.267 183.596 111.48C183.948 111.693 184.364 111.8 184.844 111.8C185.377 111.8 185.809 111.699 186.14 111.496C186.471 111.293 186.732 111.011 186.924 110.648L188.284 111.288C188.092 111.672 187.831 112.008 187.5 112.296C187.18 112.573 186.796 112.787 186.348 112.936C185.9 113.085 185.409 113.16 184.876 113.16ZM193.296 113.16C192.496 113.16 191.765 113.005 191.104 112.696C190.443 112.387 189.92 111.949 189.536 111.384L190.72 110.36C190.955 110.797 191.291 111.149 191.728 111.416C192.176 111.672 192.709 111.8 193.328 111.8C193.819 111.8 194.208 111.715 194.496 111.544C194.784 111.373 194.928 111.133 194.928 110.824C194.928 110.621 194.859 110.445 194.72 110.296C194.592 110.136 194.341 110.013 193.968 109.928L192.288 109.576C191.435 109.405 190.827 109.133 190.464 108.76C190.101 108.376 189.92 107.891 189.92 107.304C189.92 106.867 190.048 106.461 190.304 106.088C190.56 105.715 190.933 105.416 191.424 105.192C191.925 104.957 192.523 104.84 193.216 104.84C194.016 104.84 194.699 104.984 195.264 105.272C195.829 105.549 196.261 105.949 196.56 106.472L195.376 107.464C195.173 107.037 194.875 106.723 194.48 106.52C194.085 106.307 193.675 106.2 193.248 106.2C192.907 106.2 192.613 106.243 192.368 106.328C192.123 106.413 191.936 106.531 191.808 106.68C191.68 106.829 191.616 107.005 191.616 107.208C191.616 107.421 191.696 107.608 191.856 107.768C192.016 107.928 192.304 108.051 192.72 108.136L194.544 108.52C195.312 108.669 195.851 108.925 196.16 109.288C196.48 109.64 196.64 110.072 196.64 110.584C196.64 111.096 196.507 111.549 196.24 111.944C195.973 112.328 195.589 112.627 195.088 112.84C194.587 113.053 193.989 113.16 193.296 113.16ZM201.415 113.16C200.615 113.16 199.884 113.005 199.223 112.696C198.562 112.387 198.039 111.949 197.655 111.384L198.839 110.36C199.074 110.797 199.41 111.149 199.847 111.416C200.295 111.672 200.828 111.8 201.447 111.8C201.938 111.8 202.327 111.715 202.615 111.544C202.903 111.373 203.047 111.133 203.047 110.824C203.047 110.621 202.978 110.445 202.839 110.296C202.711 110.136 202.46 110.013 202.087 109.928L200.407 109.576C199.554 109.405 198.946 109.133 198.583 108.76C198.22 108.376 198.039 107.891 198.039 107.304C198.039 106.867 198.167 106.461 198.423 106.088C198.679 105.715 199.052 105.416 199.543 105.192C200.044 104.957 200.642 104.84 201.335 104.84C202.135 104.84 202.818 104.984 203.383 105.272C203.948 105.549 204.38 105.949 204.679 106.472L203.495 107.464C203.292 107.037 202.994 106.723 202.599 106.52C202.204 106.307 201.794 106.2 201.367 106.2C201.026 106.2 200.732 106.243 200.487 106.328C200.242 106.413 200.055 106.531 199.927 106.68C199.799 106.829 199.735 107.005 199.735 107.208C199.735 107.421 199.815 107.608 199.975 107.768C200.135 107.928 200.423 108.051 200.839 108.136L202.663 108.52C203.431 108.669 203.97 108.925 204.279 109.288C204.599 109.64 204.759 110.072 204.759 110.584C204.759 111.096 204.626 111.549 204.359 111.944C204.092 112.328 203.708 112.627 203.207 112.84C202.706 113.053 202.108 113.16 201.415 113.16ZM211.118 107.864C211.118 107.331 210.968 106.92 210.67 106.632C210.382 106.333 209.982 106.184 209.47 106.184C208.99 106.184 208.579 106.296 208.238 106.52C207.896 106.744 207.646 107.107 207.486 107.608L206.046 107C206.248 106.349 206.643 105.827 207.23 105.432C207.827 105.037 208.595 104.84 209.534 104.84C210.174 104.84 210.739 104.947 211.23 105.16C211.72 105.363 212.104 105.672 212.382 106.088C212.67 106.504 212.814 107.037 212.814 107.688V111.256C212.814 111.651 213.011 111.848 213.406 111.848C213.598 111.848 213.784 111.821 213.966 111.768L213.87 112.952C213.624 113.069 213.315 113.128 212.942 113.128C212.6 113.128 212.291 113.069 212.014 112.952C211.747 112.824 211.534 112.637 211.374 112.392C211.224 112.136 211.15 111.821 211.15 111.448V111.336L211.502 111.32C211.406 111.736 211.208 112.083 210.91 112.36C210.611 112.627 210.264 112.829 209.87 112.968C209.475 113.096 209.075 113.16 208.67 113.16C208.168 113.16 207.715 113.08 207.31 112.92C206.915 112.76 206.6 112.52 206.366 112.2C206.142 111.869 206.03 111.464 206.03 110.984C206.03 110.387 206.222 109.896 206.606 109.512C207 109.128 207.555 108.867 208.27 108.728L211.374 108.12L211.358 109.32L209.102 109.784C208.654 109.869 208.318 109.992 208.094 110.152C207.87 110.312 207.758 110.547 207.758 110.856C207.758 111.155 207.87 111.395 208.094 111.576C208.328 111.747 208.638 111.832 209.022 111.832C209.288 111.832 209.544 111.8 209.79 111.736C210.046 111.672 210.275 111.571 210.478 111.432C210.68 111.283 210.835 111.096 210.942 110.872C211.059 110.637 211.118 110.36 211.118 110.04V107.864ZM222.34 103.32L222.612 104.664C222.58 104.664 222.548 104.664 222.516 104.664C222.484 104.653 222.452 104.648 222.42 104.648C221.908 104.648 221.519 104.76 221.252 104.984C220.985 105.197 220.852 105.512 220.852 105.928L220.02 105.544C220.02 105.117 220.111 104.739 220.292 104.408C220.473 104.067 220.729 103.8 221.06 103.608C221.401 103.416 221.785 103.32 222.212 103.32C222.233 103.32 222.255 103.32 222.276 103.32C222.297 103.32 222.319 103.32 222.34 103.32ZM219.812 111.752C220.623 111.752 221.252 111.933 221.7 112.296C222.148 112.648 222.372 113.139 222.372 113.768C222.372 114.323 222.196 114.797 221.844 115.192C221.492 115.597 221.012 115.907 220.404 116.12C219.807 116.333 219.119 116.44 218.34 116.44C217.028 116.44 216.057 116.237 215.428 115.832C214.799 115.427 214.484 114.92 214.484 114.312C214.484 113.885 214.633 113.512 214.932 113.192C215.241 112.872 215.759 112.691 216.484 112.648L216.388 112.904C215.94 112.808 215.577 112.637 215.3 112.392C215.033 112.136 214.9 111.779 214.9 111.32C214.9 110.861 215.076 110.472 215.428 110.152C215.78 109.832 216.276 109.645 216.916 109.592L217.812 110.024H217.62C217.129 110.067 216.783 110.179 216.58 110.36C216.377 110.541 216.276 110.744 216.276 110.968C216.276 111.235 216.372 111.432 216.564 111.56C216.767 111.688 217.049 111.752 217.412 111.752H219.812ZM218.34 115.16C218.927 115.16 219.407 115.101 219.78 114.984C220.164 114.877 220.447 114.733 220.628 114.552C220.82 114.381 220.916 114.189 220.916 113.976C220.916 113.731 220.815 113.533 220.612 113.384C220.42 113.235 220.068 113.16 219.556 113.16H216.98C216.681 113.16 216.431 113.235 216.228 113.384C216.025 113.544 215.924 113.757 215.924 114.024C215.924 114.376 216.137 114.653 216.564 114.856C216.991 115.059 217.583 115.16 218.34 115.16ZM218.276 104.84C218.98 104.84 219.588 104.952 220.1 105.176C220.623 105.4 221.023 105.715 221.3 106.12C221.588 106.525 221.732 107 221.732 107.544C221.732 108.088 221.588 108.563 221.3 108.968C221.023 109.373 220.623 109.688 220.1 109.912C219.588 110.136 218.98 110.248 218.276 110.248C217.167 110.248 216.313 110.003 215.716 109.512C215.129 109.011 214.836 108.355 214.836 107.544C214.836 107 214.98 106.525 215.268 106.12C215.556 105.715 215.956 105.4 216.468 105.176C216.991 104.952 217.593 104.84 218.276 104.84ZM218.276 106.04C217.785 106.04 217.375 106.179 217.044 106.456C216.724 106.723 216.564 107.085 216.564 107.544C216.564 108.003 216.724 108.371 217.044 108.648C217.375 108.925 217.785 109.064 218.276 109.064C218.777 109.064 219.188 108.925 219.508 108.648C219.839 108.371 220.004 108.003 220.004 107.544C220.004 107.085 219.839 106.723 219.508 106.456C219.188 106.179 218.777 106.04 218.276 106.04ZM224.455 103.656C224.081 103.656 223.793 103.565 223.591 103.384C223.399 103.192 223.303 102.925 223.303 102.584C223.303 102.243 223.399 101.981 223.591 101.8C223.793 101.619 224.081 101.528 224.455 101.528C224.817 101.528 225.095 101.619 225.287 101.8C225.489 101.981 225.591 102.243 225.591 102.584C225.591 102.925 225.489 103.192 225.287 103.384C225.095 103.565 224.817 103.656 224.455 103.656ZM225.303 105V113H223.591V105H225.303ZM227.631 113V105H229.151L229.263 107.08L229.039 106.856C229.188 106.397 229.402 106.019 229.679 105.72C229.967 105.411 230.303 105.187 230.687 105.048C231.082 104.909 231.498 104.84 231.935 104.84C232.5 104.84 233.007 104.952 233.455 105.176C233.914 105.389 234.276 105.715 234.543 106.152C234.81 106.589 234.943 107.144 234.943 107.816V113H233.231V108.344C233.231 107.555 233.066 107.011 232.735 106.712C232.415 106.403 232.01 106.248 231.519 106.248C231.167 106.248 230.826 106.333 230.495 106.504C230.164 106.664 229.887 106.925 229.663 107.288C229.45 107.651 229.343 108.136 229.343 108.744V113H227.631ZM244.227 103.32L244.499 104.664C244.467 104.664 244.435 104.664 244.403 104.664C244.371 104.653 244.339 104.648 244.307 104.648C243.795 104.648 243.406 104.76 243.139 104.984C242.873 105.197 242.739 105.512 242.739 105.928L241.907 105.544C241.907 105.117 241.998 104.739 242.179 104.408C242.361 104.067 242.617 103.8 242.947 103.608C243.289 103.416 243.673 103.32 244.099 103.32C244.121 103.32 244.142 103.32 244.163 103.32C244.185 103.32 244.206 103.32 244.227 103.32ZM241.699 111.752C242.51 111.752 243.139 111.933 243.587 112.296C244.035 112.648 244.259 113.139 244.259 113.768C244.259 114.323 244.083 114.797 243.731 115.192C243.379 115.597 242.899 115.907 242.291 116.12C241.694 116.333 241.006 116.44 240.227 116.44C238.915 116.44 237.945 116.237 237.315 115.832C236.686 115.427 236.371 114.92 236.371 114.312C236.371 113.885 236.521 113.512 236.819 113.192C237.129 112.872 237.646 112.691 238.371 112.648L238.275 112.904C237.827 112.808 237.465 112.637 237.187 112.392C236.921 112.136 236.787 111.779 236.787 111.32C236.787 110.861 236.963 110.472 237.315 110.152C237.667 109.832 238.163 109.645 238.803 109.592L239.699 110.024H239.507C239.017 110.067 238.67 110.179 238.467 110.36C238.265 110.541 238.163 110.744 238.163 110.968C238.163 111.235 238.259 111.432 238.451 111.56C238.654 111.688 238.937 111.752 239.299 111.752H241.699ZM240.227 115.16C240.814 115.16 241.294 115.101 241.667 114.984C242.051 114.877 242.334 114.733 242.515 114.552C242.707 114.381 242.803 114.189 242.803 113.976C242.803 113.731 242.702 113.533 242.499 113.384C242.307 113.235 241.955 113.16 241.443 113.16H238.867C238.569 113.16 238.318 113.235 238.115 113.384C237.913 113.544 237.811 113.757 237.811 114.024C237.811 114.376 238.025 114.653 238.451 114.856C238.878 115.059 239.47 115.16 240.227 115.16ZM240.163 104.84C240.867 104.84 241.475 104.952 241.987 105.176C242.51 105.4 242.91 105.715 243.187 106.12C243.475 106.525 243.619 107 243.619 107.544C243.619 108.088 243.475 108.563 243.187 108.968C242.91 109.373 242.51 109.688 241.987 109.912C241.475 110.136 240.867 110.248 240.163 110.248C239.054 110.248 238.201 110.003 237.603 109.512C237.017 109.011 236.723 108.355 236.723 107.544C236.723 107 236.867 106.525 237.155 106.12C237.443 105.715 237.843 105.4 238.355 105.176C238.878 104.952 239.481 104.84 240.163 104.84ZM240.163 106.04C239.673 106.04 239.262 106.179 238.931 106.456C238.611 106.723 238.451 107.085 238.451 107.544C238.451 108.003 238.611 108.371 238.931 108.648C239.262 108.925 239.673 109.064 240.163 109.064C240.665 109.064 241.075 108.925 241.395 108.648C241.726 108.371 241.891 108.003 241.891 107.544C241.891 107.085 241.726 106.723 241.395 106.456C241.075 106.179 240.665 106.04 240.163 106.04Z" fill="black" fill-opacity="0.38"/>
</svg>
