<svg width="112" height="112" viewBox="0 0 112 112" fill="none" xmlns="http://www.w3.org/2000/svg">
<rect width="112" height="112" rx="56" fill="#48A8D0" fill-opacity="0.12"/>
<path d="M48.8267 60.8076L46.052 63.5823L47.0278 64.5581L49.251 62.3349L50.5492 63.6332L48.3261 65.8563L50.354 67.8843L48.6231 69.6153L43.0228 64.015L47.5285 59.5093L48.8267 60.8076Z" fill="url(#paint0_linear_3085_95608)"/>
<path fill-rule="evenodd" clip-rule="evenodd" d="M50.8472 56.1906C51.543 55.4948 52.2416 55.1186 52.943 55.0621C53.6445 54.9942 54.2611 55.2261 54.7928 55.7579C55.3868 56.3518 55.6498 56.9882 55.582 57.6671C55.5548 57.9385 55.477 58.2117 55.3486 58.4867L58.9591 59.2793L57.0669 61.1715L54.0412 60.3109L53.3334 61.0187L55.2765 62.9619L53.5794 64.6589L47.9791 59.0586L50.8472 56.1906ZM53.0449 58.9483C53.2881 58.7051 53.4239 58.4788 53.4521 58.2695C53.4804 58.0489 53.3871 57.8311 53.1721 57.6161C52.9572 57.4012 52.7394 57.3078 52.5188 57.3361C52.3038 57.3588 52.0747 57.4917 51.8315 57.7349L50.9405 58.6259L52.1539 59.8393L53.0449 58.9483Z" fill="url(#paint1_linear_3085_95608)"/>
<path d="M53.6564 53.3814L59.2567 58.9816L63.8812 54.3572L62.583 53.0589L59.6895 55.9524L58.7985 55.0614L61.0217 52.8383L59.8167 51.6334L57.5936 53.8565L56.6857 52.9486L59.4689 50.1654L58.1706 48.8672L53.6564 53.3814Z" fill="url(#paint2_linear_3085_95608)"/>
<path d="M64.3374 53.901L58.7371 48.3007L63.2513 43.7865L64.5495 45.0848L61.7664 47.8679L62.6743 48.7759L64.8974 46.5527L66.1023 47.7576L63.8792 49.9808L64.7701 50.8717L67.6636 47.9782L68.9619 49.2765L64.3374 53.901Z" fill="url(#paint3_linear_3085_95608)"/>
<path d="M64.6416 61.807C65.229 61.2228 66.1787 61.2255 66.7629 61.8129C67.3471 62.4003 67.3444 63.35 66.757 63.9342L58.8429 71.8046C58.2555 72.3888 57.3058 72.3862 56.7216 71.7988C56.1374 71.2113 56.1401 70.2616 56.7275 69.6774L64.6416 61.807Z" fill="url(#paint4_linear_3085_95608)"/>
<path d="M53.2303 73.1553C53.8177 72.5711 54.7675 72.5738 55.3516 73.1612C55.9358 73.7486 55.9332 74.6983 55.3458 75.2825L54.0574 76.5637C53.47 77.1479 52.5202 77.1453 51.9361 76.5579C51.3519 75.9705 51.3545 75.0207 51.9419 74.4366L53.2303 73.1553Z" fill="url(#paint5_linear_3085_95608)"/>
<path fill-rule="evenodd" clip-rule="evenodd" d="M58.8115 28.6465C59.3461 28.4836 59.9125 28.456 60.4604 28.5663L79.4593 32.3903C80.053 32.5098 80.5166 32.9745 80.6346 33.5684L84.4344 52.6882C84.5431 53.235 84.5159 53.8003 84.3553 54.3342C84.1946 54.8681 83.9052 55.3549 83.5118 55.7508L54.6012 84.5018L54.5979 84.5052C54.2847 84.8194 53.9128 85.0693 53.503 85.2402C53.0916 85.4116 52.6504 85.5 52.2047 85.5C51.7589 85.5 51.3177 85.4116 50.9064 85.2402C50.4951 85.0687 50.122 84.8177 49.8081 84.5018L28.4877 63.0458C28.1739 62.73 27.9254 62.3556 27.7561 61.9442C27.5868 61.5328 27.4998 61.0922 27.4998 60.6475C27.4998 60.2028 27.5868 59.7622 27.7561 59.3509C27.9254 58.9395 28.1739 58.5651 28.4877 58.2492L57.3983 29.4982L57.4019 29.4946C57.7947 29.1004 58.2787 28.8089 58.8115 28.6465ZM59.8684 31.5073C59.8079 31.4951 59.7453 31.4982 59.686 31.5162C59.6266 31.5343 59.5716 31.5672 59.5264 31.6128L30.6157 60.3638L30.6137 60.3659C30.5785 60.4018 30.55 60.4448 30.5303 60.4927C30.5102 60.5415 30.4998 60.5942 30.4998 60.6475C30.4998 60.7009 30.5102 60.7535 30.5303 60.8024C30.5504 60.8511 30.5796 60.8949 30.6157 60.9312L51.9362 82.3873C51.9723 82.4236 52.0147 82.452 52.0606 82.4711C52.1066 82.4903 52.1555 82.5 52.2047 82.5C52.2538 82.5 52.3027 82.4903 52.3487 82.4711C52.3947 82.452 52.437 82.4236 52.4732 82.3872L81.3838 53.6362L81.3858 53.6342C81.4301 53.5889 81.4636 53.5326 81.4825 53.4699C81.5017 53.4062 81.5049 53.3384 81.4919 53.2729L77.8871 35.134L59.8684 31.5073Z" fill="url(#paint6_linear_3085_95608)"/>
<path d="M73.5232 41.3135C72.4186 41.3135 71.5232 40.418 71.5232 39.3135C71.5232 38.2089 72.4186 37.3135 73.5232 37.3135C74.6278 37.3135 75.5232 38.2089 75.5232 39.3135C75.5232 40.418 74.6278 41.3135 73.5232 41.3135Z" fill="url(#paint7_linear_3085_95608)"/>
<defs>
<linearGradient id="paint0_linear_3085_95608" x1="84.4998" y1="85.5" x2="27.4997" y2="28.5" gradientUnits="userSpaceOnUse">
<stop stop-color="#3D98BF"/>
<stop offset="1" stop-color="#53B8E0"/>
</linearGradient>
<linearGradient id="paint1_linear_3085_95608" x1="84.4998" y1="85.5" x2="27.4997" y2="28.5" gradientUnits="userSpaceOnUse">
<stop stop-color="#3D98BF"/>
<stop offset="1" stop-color="#53B8E0"/>
</linearGradient>
<linearGradient id="paint2_linear_3085_95608" x1="84.4998" y1="85.5" x2="27.4997" y2="28.5" gradientUnits="userSpaceOnUse">
<stop stop-color="#3D98BF"/>
<stop offset="1" stop-color="#53B8E0"/>
</linearGradient>
<linearGradient id="paint3_linear_3085_95608" x1="84.4998" y1="85.5" x2="27.4997" y2="28.5" gradientUnits="userSpaceOnUse">
<stop stop-color="#3D98BF"/>
<stop offset="1" stop-color="#53B8E0"/>
</linearGradient>
<linearGradient id="paint4_linear_3085_95608" x1="84.4998" y1="85.5" x2="27.4997" y2="28.5" gradientUnits="userSpaceOnUse">
<stop stop-color="#3D98BF"/>
<stop offset="1" stop-color="#53B8E0"/>
</linearGradient>
<linearGradient id="paint5_linear_3085_95608" x1="84.4998" y1="85.5" x2="27.4997" y2="28.5" gradientUnits="userSpaceOnUse">
<stop stop-color="#3D98BF"/>
<stop offset="1" stop-color="#53B8E0"/>
</linearGradient>
<linearGradient id="paint6_linear_3085_95608" x1="84.4998" y1="85.5" x2="27.4997" y2="28.5" gradientUnits="userSpaceOnUse">
<stop stop-color="#3D98BF"/>
<stop offset="1" stop-color="#53B8E0"/>
</linearGradient>
<linearGradient id="paint7_linear_3085_95608" x1="84.4998" y1="85.5" x2="27.4997" y2="28.5" gradientUnits="userSpaceOnUse">
<stop stop-color="#3D98BF"/>
<stop offset="1" stop-color="#53B8E0"/>
</linearGradient>
</defs>
</svg>
