<svg width="112" height="112" viewBox="0 0 112 112" fill="none" xmlns="http://www.w3.org/2000/svg">
<rect width="112" height="112" rx="56" fill="#48A8D0" fill-opacity="0.12"/>
<path d="M36 36.5C35.3693 36.5 34.7433 36.7663 34.2659 37.2756C33.7854 37.7881 33.5 38.5028 33.5 39.2667V65.5H55C55.8284 65.5 56.5 66.1716 56.5 67C56.5 67.8284 55.8284 68.5 55 68.5H29.5V69C29.5 69.663 29.7634 70.2989 30.2322 70.7678C30.7011 71.2366 31.337 71.5 32 71.5H58C58.8284 71.5 59.5 72.1716 59.5 73C59.5 73.8284 58.8284 74.5 58 74.5H32C30.5413 74.5 29.1424 73.9205 28.1109 72.8891C27.0795 71.8576 26.5 70.4587 26.5 69V67C26.5 66.1716 27.1716 65.5 28 65.5H30.5V39.2667C30.5 37.7674 31.0575 36.3116 32.0773 35.2238C33.1001 34.1327 34.5089 33.5 36 33.5H72C73.4911 33.5 74.8999 34.1327 75.9227 35.2238C76.9425 36.3116 77.5 37.7674 77.5 39.2667V53C77.5 53.8284 76.8284 54.5 76 54.5C75.1716 54.5 74.5 53.8284 74.5 53V39.2667C74.5 38.5028 74.2146 37.7881 73.7341 37.2756C73.2567 36.7663 72.6307 36.5 72 36.5H36Z" fill="url(#paint0_linear_3085_95619)"/>
<path d="M52 48.5C51.1716 48.5 50.5 49.1716 50.5 50C50.5 50.8284 51.1716 51.5 52 51.5H65C65.8284 51.5 66.5 50.8284 66.5 50C66.5 49.1716 65.8284 48.5 65 48.5H52Z" fill="url(#paint1_linear_3085_95619)"/>
<path d="M50.5 54C50.5 53.1716 51.1716 52.5 52 52.5H60C60.8284 52.5 61.5 53.1716 61.5 54C61.5 54.8284 60.8284 55.5 60 55.5H52C51.1716 55.5 50.5 54.8284 50.5 54Z" fill="url(#paint2_linear_3085_95619)"/>
<path d="M55.5 40.5C55.5 41.3284 54.8284 42 54 42C53.1716 42 52.5 41.3284 52.5 40.5C52.5 39.6716 53.1716 39 54 39C54.8284 39 55.5 39.6716 55.5 40.5Z" fill="url(#paint3_linear_3085_95619)"/>
<path d="M48.5607 48.4393C49.1464 49.0251 49.1464 49.9749 48.5607 50.5607L44.0607 55.0607C43.4749 55.6464 42.5251 55.6464 41.9393 55.0607L39.4393 52.5607C38.8536 51.9749 38.8536 51.0251 39.4393 50.4393C40.0251 49.8536 40.9749 49.8536 41.5607 50.4393L43 51.8787L46.4393 48.4393C47.0251 47.8536 47.9749 47.8536 48.5607 48.4393Z" fill="url(#paint4_linear_3085_95619)"/>
<path fill-rule="evenodd" clip-rule="evenodd" d="M82.8889 54.7918C82.4761 54.5998 82.017 54.5297 81.5657 54.5897C81.1149 54.6496 80.6904 54.837 80.3423 55.1296C77.6238 57.4094 74.8566 58.5461 72.7751 59.1132C71.7345 59.3967 70.8691 59.5367 70.274 59.6057C69.9768 59.6401 69.7479 59.6568 69.5993 59.6648C69.525 59.6688 69.471 59.6706 69.4386 59.6715L69.4065 59.6721L69.4044 59.6722L64.9537 59.6722C63.3745 59.6722 61.8599 60.2995 60.7432 61.4162C59.6266 62.5329 58.9992 64.0474 58.9992 65.6266C58.9992 67.2058 59.6266 68.7204 60.7432 69.8371C61.5723 70.6661 62.6206 71.2254 63.7518 71.4585L64.9736 76.3457C65.0666 76.7174 65.2474 77.0613 65.5011 77.3485C65.7547 77.6357 66.0736 77.8577 66.431 77.9959C66.7884 78.1341 67.1737 78.1843 67.5545 78.1424C67.9354 78.1005 68.3006 77.9677 68.6194 77.7552L69.8435 76.9391C70.171 76.7208 70.4395 76.425 70.6252 76.0779C70.8109 75.7309 70.9081 75.3434 70.9081 74.9498V71.7352C71.427 71.818 72.0596 71.9451 72.7751 72.1401C74.8568 72.7072 77.6245 73.8441 80.3433 76.1244C80.6912 76.4166 81.1153 76.6037 81.5657 76.6635C82.017 76.7235 82.4761 76.6534 82.8889 76.4614C83.3018 76.2694 83.6512 75.9635 83.8961 75.5798C84.141 75.196 84.2712 74.7502 84.2715 74.2949V56.9591C84.2712 56.5038 84.141 56.0573 83.8961 55.6735C83.6512 55.2897 83.3018 54.9838 82.8889 54.7918ZM64.9787 68.5811C64.9641 68.5808 64.9496 68.5808 64.935 68.581C64.1582 68.5761 63.4142 68.2654 62.8646 67.7157C62.3105 67.1617 61.9992 66.4102 61.9992 65.6266C61.9992 64.843 62.3105 64.0916 62.8646 63.5375C63.4186 62.9834 64.1701 62.6722 64.9537 62.6722H67.9081V68.5811H64.9787ZM73.5638 62.0077C72.5115 62.2944 71.6037 62.4572 70.9081 62.5498V68.7035C71.6037 68.796 72.5115 68.9589 73.5638 69.2456C75.7155 69.8318 78.4839 70.9397 81.2715 73.0323V58.221C78.4839 60.3135 75.7155 61.4214 73.5638 62.0077ZM66.8748 71.5811H67.9081V74.6238L67.6744 74.7796L66.8748 71.5811Z" fill="url(#paint5_linear_3085_95619)"/>
<defs>
<linearGradient id="paint0_linear_3085_95619" x1="84.2715" y1="78.1567" x2="41.0553" y2="22.2489" gradientUnits="userSpaceOnUse">
<stop stop-color="#3D98BF"/>
<stop offset="1" stop-color="#53B8E0"/>
</linearGradient>
<linearGradient id="paint1_linear_3085_95619" x1="84.2715" y1="78.1567" x2="41.0553" y2="22.2489" gradientUnits="userSpaceOnUse">
<stop stop-color="#3D98BF"/>
<stop offset="1" stop-color="#53B8E0"/>
</linearGradient>
<linearGradient id="paint2_linear_3085_95619" x1="84.2715" y1="78.1567" x2="41.0553" y2="22.2489" gradientUnits="userSpaceOnUse">
<stop stop-color="#3D98BF"/>
<stop offset="1" stop-color="#53B8E0"/>
</linearGradient>
<linearGradient id="paint3_linear_3085_95619" x1="84.2715" y1="78.1567" x2="41.0553" y2="22.2489" gradientUnits="userSpaceOnUse">
<stop stop-color="#3D98BF"/>
<stop offset="1" stop-color="#53B8E0"/>
</linearGradient>
<linearGradient id="paint4_linear_3085_95619" x1="84.2715" y1="78.1567" x2="41.0553" y2="22.2489" gradientUnits="userSpaceOnUse">
<stop stop-color="#3D98BF"/>
<stop offset="1" stop-color="#53B8E0"/>
</linearGradient>
<linearGradient id="paint5_linear_3085_95619" x1="84.2715" y1="78.1567" x2="41.0553" y2="22.2489" gradientUnits="userSpaceOnUse">
<stop stop-color="#3D98BF"/>
<stop offset="1" stop-color="#53B8E0"/>
</linearGradient>
</defs>
</svg>
