<svg width="112" height="112" viewBox="0 0 112 112" fill="none" xmlns="http://www.w3.org/2000/svg">
<rect width="112" height="112" rx="56" fill="#48A8D0" fill-opacity="0.12"/>
<path d="M59.9999 33.5C53.174 33.5 47.1662 37.006 43.6802 42.3225C43.2259 43.0153 42.2961 43.2086 41.6033 42.7544C40.9105 42.3001 40.7171 41.3703 41.1714 40.6775C45.1883 34.5513 52.1206 30.5 59.9999 30.5C67.5439 30.5 74.2184 34.2124 78.2999 39.9071V36.353C78.2999 35.5246 78.9714 34.853 79.7999 34.853C80.6283 34.853 81.2999 35.5246 81.2999 36.353V45.942C81.2999 46.7704 80.6283 47.442 79.7999 47.442H70.2109C69.3825 47.442 68.7109 46.7704 68.7109 45.942C68.7109 45.1135 69.3825 44.442 70.2109 44.442H77.5269C74.3559 37.9602 67.6972 33.5 59.9999 33.5Z" fill="url(#paint0_linear_3085_95613)"/>
<path d="M80.9999 51.5C81.8283 51.5 82.4999 52.1716 82.4999 53C82.4999 65.4264 72.4263 75.5 59.9999 75.5C58.5211 75.5 57.0882 75.3571 55.7099 75.0857C54.8971 74.9256 54.3679 74.1369 54.528 73.3241C54.688 72.5113 55.4767 71.9821 56.2895 72.1422C57.4763 72.3759 58.715 72.5 59.9999 72.5C70.7695 72.5 79.4999 63.7696 79.4999 53C79.4999 52.1716 80.1715 51.5 80.9999 51.5Z" fill="url(#paint1_linear_3085_95613)"/>
<path fill-rule="evenodd" clip-rule="evenodd" d="M42.2795 47.3843C42.2795 46.5559 41.6079 45.8843 40.7795 45.8843C39.9511 45.8843 39.2795 46.5559 39.2795 47.3843V49.1382H37.7289C35.6805 49.1382 33.7373 50.0071 32.3204 51.5185C30.9065 53.0266 30.1277 55.0525 30.1277 57.1462C30.1277 59.2399 30.9065 61.2658 32.3204 62.7739C33.7373 64.2853 35.6805 65.1541 37.7289 65.1541H39.2795V75.17H37.1188C35.9308 75.17 34.7704 74.6675 33.8989 73.738C33.0243 72.8051 32.5176 71.5204 32.5176 70.1621C32.5176 69.3336 31.846 68.6621 31.0176 68.6621C30.1892 68.6621 29.5176 69.3336 29.5176 70.1621C29.5176 72.2558 30.2964 74.2817 31.7103 75.7898C33.1272 77.3012 35.0704 78.17 37.1188 78.17H39.2795V79.924C39.2795 80.7524 39.9511 81.424 40.7795 81.424C41.6079 81.424 42.2795 80.7524 42.2795 79.924V78.17H44.4402C46.4886 78.17 48.4318 77.3012 49.8487 75.7898C51.2626 74.2817 52.0414 72.2558 52.0414 70.1621C52.0414 68.0684 51.2626 66.0425 49.8487 64.5344C48.4318 63.023 46.4886 62.1541 44.4402 62.1541H42.2795V52.1382H43.22C43.8103 52.1382 44.3973 52.2621 44.9486 52.5057C45.5001 52.7494 46.0078 53.1094 46.4399 53.5703C46.8721 54.0314 47.2197 54.5839 47.4585 55.1987C47.6972 55.8136 47.8212 56.4756 47.8212 57.1462C47.8212 57.9746 48.4927 58.6462 49.3212 58.6462C50.1496 58.6462 50.8212 57.9746 50.8212 57.1462C50.8212 56.1075 50.6295 55.077 50.255 54.1127C49.8805 53.1483 49.3293 52.266 48.6285 51.5185C47.9275 50.7707 47.0899 50.172 46.161 49.7616C45.2318 49.351 44.2321 49.1382 43.22 49.1382H42.2795V47.3843ZM39.2795 52.1382H37.7289C36.541 52.1382 35.3805 52.6407 34.509 53.5703C33.6345 54.5031 33.1277 55.7879 33.1277 57.1462C33.1277 58.5045 33.6345 59.7892 34.509 60.7221C35.3805 61.6517 36.541 62.1541 37.7289 62.1541H39.2795V52.1382ZM42.2795 75.17H44.4402C45.6281 75.17 46.7886 74.6675 47.6601 73.738C48.5346 72.8051 49.0414 71.5204 49.0414 70.1621C49.0414 68.8038 48.5346 67.519 47.6601 66.5862C46.7886 65.6566 45.6281 65.1541 44.4402 65.1541H42.2795V75.17Z" fill="url(#paint2_linear_3085_95613)"/>
<path d="M59.7461 40.7163C60.5745 40.7163 61.2461 41.3879 61.2461 42.2163V52.8566L70.4612 58.177C71.1786 58.5912 71.4244 59.5086 71.0102 60.226C70.596 60.9435 69.6786 61.1893 68.9612 60.7751L59.0331 55.0431C58.9325 54.9886 58.8388 54.923 58.7537 54.8479C58.66 54.7654 58.5784 54.6727 58.5097 54.5725C58.3672 54.3655 58.2753 54.1209 58.252 53.8566C58.2471 53.8027 58.2451 53.7483 58.2461 53.6939V42.2163C58.2461 41.3879 58.9177 40.7163 59.7461 40.7163Z" fill="url(#paint3_linear_3085_95613)"/>
<defs>
<linearGradient id="paint0_linear_3085_95613" x1="82.4999" y1="81.424" x2="31.6159" y2="28.4832" gradientUnits="userSpaceOnUse">
<stop stop-color="#3D98BF"/>
<stop offset="1" stop-color="#53B8E0"/>
</linearGradient>
<linearGradient id="paint1_linear_3085_95613" x1="82.4999" y1="81.424" x2="31.6159" y2="28.4832" gradientUnits="userSpaceOnUse">
<stop stop-color="#3D98BF"/>
<stop offset="1" stop-color="#53B8E0"/>
</linearGradient>
<linearGradient id="paint2_linear_3085_95613" x1="82.4999" y1="81.424" x2="31.6159" y2="28.4832" gradientUnits="userSpaceOnUse">
<stop stop-color="#3D98BF"/>
<stop offset="1" stop-color="#53B8E0"/>
</linearGradient>
<linearGradient id="paint3_linear_3085_95613" x1="82.4999" y1="81.424" x2="31.6159" y2="28.4832" gradientUnits="userSpaceOnUse">
<stop stop-color="#3D98BF"/>
<stop offset="1" stop-color="#53B8E0"/>
</linearGradient>
</defs>
</svg>
