<svg width="112" height="112" viewBox="0 0 112 112" fill="none" xmlns="http://www.w3.org/2000/svg">
<rect width="112" height="112" rx="56" fill="#48A8D0" fill-opacity="0.12"/>
<path fill-rule="evenodd" clip-rule="evenodd" d="M66.2501 70.5C66.3164 70.5 66.3799 70.4737 66.4268 70.4268C66.4737 70.3799 66.5 70.3163 66.5 70.25V31.75C66.5 31.6837 66.4737 31.6201 66.4268 31.5732C66.3799 31.5263 66.3163 31.5 66.25 31.5H34.75C34.6837 31.5 34.6201 31.5263 34.5732 31.5732C34.5263 31.6201 34.5 31.6837 34.5 31.75V32.5C34.5 33.3284 33.8284 34 33 34C32.1716 34 31.5 33.3284 31.5 32.5V31.75C31.5 30.8881 31.8424 30.0614 32.4518 29.4519C33.0613 28.8424 33.8879 28.5 34.7499 28.5H66.2501C67.1121 28.5 67.9387 28.8424 68.5482 29.4519C69.1576 30.0614 69.5 30.8881 69.5 31.75V70.25C69.5 71.1119 69.1576 71.9386 68.5482 72.5481C67.9387 73.1576 67.1121 73.5 66.2501 73.5H45.2494C45.2078 73.5 45.1663 73.4983 45.1252 73.4949C45.0839 73.4983 45.0422 73.5 45 73.5C44.3233 73.5 43.7513 73.0519 43.5645 72.4363L32.5644 61.4358C31.9484 61.2492 31.5 60.6769 31.5 60C31.5 59.9577 31.5017 59.9159 31.5052 59.8745C31.5017 59.8333 31.5 59.7917 31.5 59.75V48.5C31.5 47.6716 32.1716 47 33 47C33.8284 47 34.5 47.6716 34.5 48.5V58.5H45C45.8284 58.5 46.5 59.1716 46.5 60V70.5H66.2501ZM43.5 68.1291V61.5H36.8712L43.5 68.1291Z" fill="url(#paint0_linear_3085_95624)"/>
<path d="M28 37C27.1716 37 26.5 37.6716 26.5 38.5C26.5 39.3284 27.1716 40 28 40H40C40.8284 40 41.5 39.3284 41.5 38.5C41.5 37.6716 40.8284 37 40 37H28Z" fill="url(#paint1_linear_3085_95624)"/>
<path d="M28 41C27.1716 41 26.5 41.6716 26.5 42.5C26.5 43.3284 27.1716 44 28 44H35C35.8284 44 36.5 43.3284 36.5 42.5C36.5 41.6716 35.8284 41 35 41H28Z" fill="url(#paint2_linear_3085_95624)"/>
<path d="M61.0764 39.9553C61.6534 40.5498 61.6392 41.4994 61.0447 42.0764L49.7113 53.0764C49.1294 53.6412 48.2038 53.6412 47.6219 53.0764L41.9553 47.5764C41.3608 46.9994 41.3467 46.0497 41.9236 45.4553C42.5006 44.8608 43.4503 44.8467 44.0447 45.4236L48.6666 49.9096L58.9553 39.9236C59.5498 39.3466 60.4994 39.3608 61.0764 39.9553Z" fill="url(#paint3_linear_3085_95624)"/>
<path d="M74 60.5C73.1716 60.5 72.5 61.1716 72.5 62C72.5 62.8284 73.1716 63.5 74 63.5H80.5V77.8165H65.7291C65.3831 77.8165 65.0476 77.9362 64.7797 78.1552L61.5 80.8363V78C61.5 77.1716 60.8284 76.5 60 76.5C59.1716 76.5 58.5 77.1716 58.5 78V84C58.5 84.5795 58.8338 85.1071 59.3574 85.3554C59.881 85.6036 60.5007 85.5281 60.9494 85.1613L66.2642 80.8165H80.8421C81.5524 80.8165 82.2303 80.531 82.7274 80.0283C83.224 79.5262 83.5 78.8487 83.5 78.1457V63.1709C83.5 62.4679 83.224 61.7903 82.7274 61.2882C82.2303 60.7855 81.5524 60.5 80.8421 60.5H74Z" fill="url(#paint4_linear_3085_95624)"/>
<path d="M78 70.5C78 71.3284 77.3284 72 76.5 72C75.6716 72 75 71.3284 75 70.5C75 69.6716 75.6716 69 76.5 69C77.3284 69 78 69.6716 78 70.5Z" fill="url(#paint5_linear_3085_95624)"/>
<path d="M72.5 72C73.3284 72 74 71.3284 74 70.5C74 69.6716 73.3284 69 72.5 69C71.6716 69 71 69.6716 71 70.5C71 71.3284 71.6716 72 72.5 72Z" fill="url(#paint6_linear_3085_95624)"/>
<defs>
<linearGradient id="paint0_linear_3085_95624" x1="83.5" y1="85.5" x2="26.5" y2="28.5" gradientUnits="userSpaceOnUse">
<stop stop-color="#3D98BF"/>
<stop offset="1" stop-color="#53B8E0"/>
</linearGradient>
<linearGradient id="paint1_linear_3085_95624" x1="83.5" y1="85.5" x2="26.5" y2="28.5" gradientUnits="userSpaceOnUse">
<stop stop-color="#3D98BF"/>
<stop offset="1" stop-color="#53B8E0"/>
</linearGradient>
<linearGradient id="paint2_linear_3085_95624" x1="83.5" y1="85.5" x2="26.5" y2="28.5" gradientUnits="userSpaceOnUse">
<stop stop-color="#3D98BF"/>
<stop offset="1" stop-color="#53B8E0"/>
</linearGradient>
<linearGradient id="paint3_linear_3085_95624" x1="83.5" y1="85.5" x2="26.5" y2="28.5" gradientUnits="userSpaceOnUse">
<stop stop-color="#3D98BF"/>
<stop offset="1" stop-color="#53B8E0"/>
</linearGradient>
<linearGradient id="paint4_linear_3085_95624" x1="83.5" y1="85.5" x2="26.5" y2="28.5" gradientUnits="userSpaceOnUse">
<stop stop-color="#3D98BF"/>
<stop offset="1" stop-color="#53B8E0"/>
</linearGradient>
<linearGradient id="paint5_linear_3085_95624" x1="83.5" y1="85.5" x2="26.5" y2="28.5" gradientUnits="userSpaceOnUse">
<stop stop-color="#3D98BF"/>
<stop offset="1" stop-color="#53B8E0"/>
</linearGradient>
<linearGradient id="paint6_linear_3085_95624" x1="83.5" y1="85.5" x2="26.5" y2="28.5" gradientUnits="userSpaceOnUse">
<stop stop-color="#3D98BF"/>
<stop offset="1" stop-color="#53B8E0"/>
</linearGradient>
</defs>
</svg>
