<svg width="112" height="112" viewBox="0 0 112 112" fill="none" xmlns="http://www.w3.org/2000/svg">
<rect width="112" height="112" rx="56" fill="#48A8D0" fill-opacity="0.12"/>
<path fill-rule="evenodd" clip-rule="evenodd" d="M41.8683 29.8683C44.0249 27.7116 46.95 26.5 50 26.5C53.05 26.5 55.9751 27.7116 58.1317 29.8683C58.3356 30.0722 58.5311 30.2829 58.7178 30.5H68C68.9283 30.5 69.8185 30.8687 70.4749 31.5251C71.1313 32.1815 71.5 33.0717 71.5 34V50C71.5 50.8284 70.8284 51.5 70 51.5C69.1716 51.5 68.5 50.8284 68.5 50V34C68.5 33.8674 68.4473 33.7402 68.3536 33.6464C68.2598 33.5527 68.1326 33.5 68 33.5H60.583C61.1824 34.9097 61.5 36.4385 61.5 38V40C61.5 40.8284 60.8284 41.5 60 41.5H40C39.1716 41.5 38.5 40.8284 38.5 40V38C38.5 36.4385 38.8176 34.9097 39.417 33.5H32C31.8674 33.5 31.7402 33.5527 31.6464 33.6464C31.5527 33.7402 31.5 33.8674 31.5 34V76C31.5 76.1326 31.5527 76.2598 31.6464 76.3536C31.7402 76.4473 31.8674 76.5 32 76.5H60C60.8284 76.5 61.5 77.1716 61.5 78C61.5 78.8284 60.8284 79.5 60 79.5H32C31.0717 79.5 30.1815 79.1313 29.5251 78.4749C28.8687 77.8185 28.5 76.9283 28.5 76V34C28.5 33.0717 28.8688 32.1815 29.5251 31.5251C30.1815 30.8688 31.0717 30.5 32 30.5H41.2822C41.4689 30.2829 41.6644 30.0722 41.8683 29.8683ZM50 29.5C47.7457 29.5 45.5837 30.3955 43.9896 31.9896C42.3955 33.5837 41.5 35.7457 41.5 38V38.5H58.5V38C58.5 35.7457 57.6045 33.5837 56.0104 31.9896C54.4163 30.3955 52.2543 29.5 50 29.5Z" fill="url(#paint0_linear_3085_95901)"/>
<path d="M38.5 50C38.5 49.1716 39.1716 48.5 40 48.5H60C60.8284 48.5 61.5 49.1716 61.5 50C61.5 50.8284 60.8284 51.5 60 51.5H40C39.1716 51.5 38.5 50.8284 38.5 50Z" fill="url(#paint1_linear_3085_95901)"/>
<path d="M40 54.5C39.1716 54.5 38.5 55.1716 38.5 56C38.5 56.8284 39.1716 57.5 40 57.5H60C60.8284 57.5 61.5 56.8284 61.5 56C61.5 55.1716 60.8284 54.5 60 54.5H40Z" fill="url(#paint2_linear_3085_95901)"/>
<path d="M40 60.5C39.1716 60.5 38.5 61.1716 38.5 62C38.5 62.8284 39.1716 63.5 40 63.5H50C50.8284 63.5 51.5 62.8284 51.5 62C51.5 61.1716 50.8284 60.5 50 60.5H40Z" fill="url(#paint3_linear_3085_95901)"/>
<path fill-rule="evenodd" clip-rule="evenodd" d="M65.5 66C65.5 62.4101 68.4101 59.5 72 59.5C75.5899 59.5 78.5 62.4101 78.5 66C78.5 69.5899 75.5899 72.5 72 72.5C68.4101 72.5 65.5 69.5899 65.5 66ZM72 62.5C70.067 62.5 68.5 64.067 68.5 66C68.5 67.933 70.067 69.5 72 69.5C73.933 69.5 75.5 67.933 75.5 66C75.5 64.067 73.933 62.5 72 62.5Z" fill="url(#paint4_linear_3085_95901)"/>
<path fill-rule="evenodd" clip-rule="evenodd" d="M64.5007 74.7187C62.0511 72.6097 60.5 69.486 60.5 66C60.5 59.6487 65.6487 54.5 72 54.5C78.3513 54.5 83.5 59.6487 83.5 66C83.5 69.4853 81.9495 72.6085 79.5007 74.7174V83.9999C79.5007 84.5197 79.2316 85.0025 78.7894 85.2758C78.3472 85.5492 77.795 85.574 77.33 85.3416L72 82.6769L66.6716 85.3415C66.2066 85.574 65.6544 85.5492 65.2122 85.2759C64.7699 85.0026 64.5007 84.5198 64.5007 83.9999V74.7187ZM63.5 66C63.5 61.3056 67.3056 57.5 72 57.5C76.6944 57.5 80.5 61.3056 80.5 66C80.5 68.7649 79.1799 71.2215 77.1355 72.7738C77.1119 72.7905 77.0889 72.8078 77.0664 72.8258C75.6515 73.8776 73.8985 74.5 72 74.5C70.1039 74.5 68.3527 73.8791 66.9388 72.8296C66.9138 72.8095 66.888 72.7902 66.8617 72.7717C64.8189 71.2192 63.5 68.7636 63.5 66ZM67.5007 76.5865V81.5727L71.329 79.6583C71.7512 79.4471 72.2483 79.4471 72.6706 79.6582L76.5007 81.573V76.5859C75.1184 77.1744 73.5972 77.5 72 77.5C70.4033 77.5 68.8827 77.1746 67.5007 76.5865Z" fill="url(#paint5_linear_3085_95901)"/>
<defs>
<linearGradient id="paint0_linear_3085_95901" x1="83.5" y1="85.4999" x2="24.6452" y2="30.6352" gradientUnits="userSpaceOnUse">
<stop stop-color="#3D98BF"/>
<stop offset="1" stop-color="#53B8E0"/>
</linearGradient>
<linearGradient id="paint1_linear_3085_95901" x1="83.5" y1="85.4999" x2="24.6452" y2="30.6352" gradientUnits="userSpaceOnUse">
<stop stop-color="#3D98BF"/>
<stop offset="1" stop-color="#53B8E0"/>
</linearGradient>
<linearGradient id="paint2_linear_3085_95901" x1="83.5" y1="85.4999" x2="24.6452" y2="30.6352" gradientUnits="userSpaceOnUse">
<stop stop-color="#3D98BF"/>
<stop offset="1" stop-color="#53B8E0"/>
</linearGradient>
<linearGradient id="paint3_linear_3085_95901" x1="83.5" y1="85.4999" x2="24.6452" y2="30.6352" gradientUnits="userSpaceOnUse">
<stop stop-color="#3D98BF"/>
<stop offset="1" stop-color="#53B8E0"/>
</linearGradient>
<linearGradient id="paint4_linear_3085_95901" x1="83.5" y1="85.4999" x2="24.6452" y2="30.6352" gradientUnits="userSpaceOnUse">
<stop stop-color="#3D98BF"/>
<stop offset="1" stop-color="#53B8E0"/>
</linearGradient>
<linearGradient id="paint5_linear_3085_95901" x1="83.5" y1="85.4999" x2="24.6452" y2="30.6352" gradientUnits="userSpaceOnUse">
<stop stop-color="#3D98BF"/>
<stop offset="1" stop-color="#53B8E0"/>
</linearGradient>
</defs>
</svg>
