<svg width="112" height="112" viewBox="0 0 112 112" fill="none" xmlns="http://www.w3.org/2000/svg">
<rect width="112" height="112" rx="56" fill="#48A8D0" fill-opacity="0.12"/>
<path d="M61 34.5C60.1716 34.5 59.5 35.1716 59.5 36C59.5 36.8284 60.1716 37.5 61 37.5H69.8043C70.6328 37.5 71.3043 36.8284 71.3043 36C71.3043 35.1716 70.6328 34.5 69.8043 34.5H61Z" fill="url(#paint0_linear_3085_95916)"/>
<path d="M59.5 40C59.5 39.1716 60.1716 38.5 61 38.5H66C66.8284 38.5 67.5 39.1716 67.5 40C67.5 40.8284 66.8284 41.5 66 41.5H61C60.1716 41.5 59.5 40.8284 59.5 40Z" fill="url(#paint1_linear_3085_95916)"/>
<path fill-rule="evenodd" clip-rule="evenodd" d="M54.2572 29.2726C54.7444 28.7799 55.4089 28.5 56.1053 28.5H74.8947C75.5911 28.5 76.2556 28.7799 76.7428 29.2726C77.2295 29.7648 77.5 30.4288 77.5 31.1176V37.5H80.8947C81.5911 37.5 82.2556 37.7799 82.7428 38.2726C83.2295 38.7648 83.5 39.4288 83.5 40.1176V60C83.5 60.5795 83.1662 61.1071 82.6426 61.3554C82.119 61.6036 81.4993 61.5281 81.0506 61.1613L75.9962 57.0294H62.1053C61.4089 57.0294 60.7444 56.7495 60.2572 56.2568C59.7705 55.7646 59.5 55.1006 59.5 54.4118V49.2587L55.9494 52.1613C55.5007 52.5281 54.881 52.6036 54.3574 52.3554C53.8338 52.1071 53.5 51.5795 53.5 51V31.1176C53.5 30.4288 53.7705 29.7648 54.2572 29.2726ZM56.5 31.5V47.8363L59.5193 45.3681C59.7872 45.1491 60.1226 45.0294 60.4687 45.0294H74.5V31.5H56.5ZM77.5 45.4118V40.5H80.5V56.8363L77.4807 54.3681C77.2128 54.1491 76.8774 54.0294 76.5313 54.0294H62.5V48.0294H74.8947C75.5911 48.0294 76.2556 47.7495 76.7428 47.2568C77.2295 46.7646 77.5 46.1006 77.5 45.4118Z" fill="url(#paint2_linear_3085_95916)"/>
<path d="M62.8129 69.3848C62.0515 69.0585 61.1697 69.4112 60.8433 70.1727C60.517 70.9341 60.8697 71.816 61.6312 72.1423L67.2411 74.5465C68.0026 74.8729 68.8844 74.5201 69.2107 73.7587C69.537 72.9973 69.1843 72.1154 68.4229 71.7891L62.8129 69.3848Z" fill="url(#paint3_linear_3085_95916)"/>
<path d="M38.2425 42.792C39.004 42.4656 39.8858 42.8183 40.2121 43.5798L42.6185 49.1946C42.9448 49.9561 42.5921 50.8379 41.8306 51.1642C41.0692 51.4906 40.1874 51.1378 39.861 50.3764L37.4547 44.7616C37.1283 44.0001 37.4811 43.1183 38.2425 42.792Z" fill="url(#paint4_linear_3085_95916)"/>
<path fill-rule="evenodd" clip-rule="evenodd" d="M41.9795 36.9581C41.3395 36.588 40.5966 36.4359 39.8626 36.5247C39.831 36.5285 39.7996 36.5333 39.7683 36.5392C35.3917 37.3538 32.3401 39.4762 30.5149 42.4754C28.7185 45.4272 28.2124 49.0583 28.5485 52.7572C29.218 60.1249 33.2731 68.3099 38.4816 73.5185C43.7113 78.7482 51.9119 82.5417 59.2694 83.0788C62.9619 83.3483 66.5731 82.8064 69.5076 81.0736C72.4904 79.3123 74.6334 76.4009 75.4576 72.2494C75.4649 72.2123 75.4709 72.175 75.4754 72.1375C75.5642 71.4035 75.4121 70.6606 75.042 70.0206C74.6723 69.3814 74.1051 68.8795 73.4257 68.5902L73.4233 68.5892L62.2078 63.7826C61.6855 63.5587 61.1155 63.4687 60.5495 63.5207C59.9836 63.5727 59.4395 63.765 58.9667 64.0803L52.9693 68.0795L52.9626 68.084C52.9051 68.1228 52.8386 68.1459 52.7695 68.1512C52.7017 68.1563 52.6337 68.144 52.572 68.1155C48.8069 66.2931 45.7613 63.2613 43.9218 59.5046C43.893 59.4432 43.8804 59.3754 43.885 59.3078C43.8898 59.2388 43.9124 59.1724 43.9505 59.1148L47.9402 53.0187C48.2487 52.5473 48.4358 52.0069 48.4849 51.4457C48.5341 50.8845 48.4436 50.3199 48.2217 49.802L43.4109 38.5768L43.4098 38.5743C43.1206 37.8949 42.6187 37.3278 41.9795 36.9581ZM33.0776 44.035C34.3985 41.8645 36.6463 40.1865 40.2541 39.5004C40.332 39.4969 40.4096 39.5158 40.4776 39.5551C40.5545 39.5996 40.6149 39.6679 40.6497 39.7497L45.4643 50.9838C45.4913 51.0469 45.5024 51.1157 45.4964 51.1841C45.4904 51.2525 45.4676 51.3184 45.43 51.3759L41.4491 57.4585L41.4467 57.4621C41.1235 57.9515 40.9325 58.5163 40.8921 59.1014C40.8517 59.688 40.9641 60.2751 41.2183 60.8053L41.2234 60.8157C43.3589 65.1814 46.8977 68.7043 51.2732 70.8198L51.2838 70.8249C51.8172 71.0776 52.4072 71.1871 52.9958 71.1426C53.5829 71.0982 54.1483 70.902 54.6368 70.5734L54.6405 70.5709L60.631 66.5763C60.6887 66.5379 60.755 66.5144 60.824 66.5081C60.8929 66.5018 60.9624 66.5127 61.0261 66.54L72.2459 71.3485L72.2504 71.3504C72.3322 71.3852 72.4005 71.4456 72.445 71.5225C72.4833 71.5887 72.5022 71.6641 72.4999 71.74C71.8213 75.067 70.1654 77.2012 67.9823 78.4903C65.7345 79.8176 62.7883 80.3277 59.4878 80.0867C52.8593 79.6029 45.3311 76.1253 40.6029 71.3972C35.8536 66.6478 32.1376 59.104 31.5362 52.4857C31.2368 49.1916 31.7203 46.2654 33.0776 44.035Z" fill="url(#paint5_linear_3085_95916)"/>
<defs>
<linearGradient id="paint0_linear_3085_95916" x1="83.5" y1="83.1443" x2="28.8572" y2="28.0969" gradientUnits="userSpaceOnUse">
<stop stop-color="#3D98BF"/>
<stop offset="1" stop-color="#53B8E0"/>
</linearGradient>
<linearGradient id="paint1_linear_3085_95916" x1="83.5" y1="83.1443" x2="28.8572" y2="28.0969" gradientUnits="userSpaceOnUse">
<stop stop-color="#3D98BF"/>
<stop offset="1" stop-color="#53B8E0"/>
</linearGradient>
<linearGradient id="paint2_linear_3085_95916" x1="83.5" y1="83.1443" x2="28.8572" y2="28.0969" gradientUnits="userSpaceOnUse">
<stop stop-color="#3D98BF"/>
<stop offset="1" stop-color="#53B8E0"/>
</linearGradient>
<linearGradient id="paint3_linear_3085_95916" x1="83.5" y1="83.1443" x2="28.8572" y2="28.0969" gradientUnits="userSpaceOnUse">
<stop stop-color="#3D98BF"/>
<stop offset="1" stop-color="#53B8E0"/>
</linearGradient>
<linearGradient id="paint4_linear_3085_95916" x1="83.5" y1="83.1443" x2="28.8572" y2="28.0969" gradientUnits="userSpaceOnUse">
<stop stop-color="#3D98BF"/>
<stop offset="1" stop-color="#53B8E0"/>
</linearGradient>
<linearGradient id="paint5_linear_3085_95916" x1="83.5" y1="83.1443" x2="28.8572" y2="28.0969" gradientUnits="userSpaceOnUse">
<stop stop-color="#3D98BF"/>
<stop offset="1" stop-color="#53B8E0"/>
</linearGradient>
</defs>
</svg>
