<svg width="112" height="112" viewBox="0 0 112 112" fill="none" xmlns="http://www.w3.org/2000/svg">
<rect width="112" height="112" rx="56" fill="#48A8D0" fill-opacity="0.12"/>
<path d="M34.0001 30.5C30.9625 30.5 28.5001 32.9624 28.5001 36L28.5 64C28.5 67.0376 30.9624 69.5 34 69.5H51.5V74.5H47C46.1716 74.5 45.5 75.1716 45.5 76C45.5 76.8284 46.1716 77.5 47 77.5H59C59.8284 77.5 60.5 76.8284 60.5 76C60.5 75.1716 59.8284 74.5 59 74.5H54.5V69.5H60C60.8284 69.5 61.5 68.8285 61.5 68C61.5 67.1716 60.8284 66.5 60 66.5H34C32.6193 66.5 31.5 65.3807 31.5 64L31.5 63.5H60C60.8284 63.5 61.5 62.8284 61.5 62C61.5 61.1716 60.8284 60.5 60 60.5H31.5L31.5001 36C31.5001 34.6193 32.6194 33.5 34.0001 33.5L72 33.5C73.3807 33.5 74.5 34.6193 74.5 36V48C74.5 48.8284 75.1716 49.5 76 49.5C76.8284 49.5 77.5 48.8284 77.5 48V36C77.5 32.9625 75.0376 30.5 72 30.5L34.0001 30.5Z" fill="url(#paint0_linear_3085_95906)"/>
<path d="M51 45.5C50.1716 45.5 49.5 46.1716 49.5 47C49.5 47.8284 50.1716 48.5 51 48.5H63C63.8284 48.5 64.5 47.8284 64.5 47C64.5 46.1716 63.8284 45.5 63 45.5H51Z" fill="url(#paint1_linear_3085_95906)"/>
<path d="M49.5 51C49.5 50.1716 50.1716 49.5 51 49.5H58C58.8284 49.5 59.5 50.1716 59.5 51C59.5 51.8284 58.8284 52.5 58 52.5H51C50.1716 52.5 49.5 51.8284 49.5 51Z" fill="url(#paint2_linear_3085_95906)"/>
<path d="M74 76C74.8284 76 75.5 75.3284 75.5 74.5C75.5 73.6716 74.8284 73 74 73C73.1716 73 72.5 73.6716 72.5 74.5C72.5 75.3284 73.1716 76 74 76Z" fill="url(#paint3_linear_3085_95906)"/>
<path fill-rule="evenodd" clip-rule="evenodd" d="M83.5 56C83.5 54.067 81.933 52.5 80 52.5H68C66.067 52.5 64.5 54.067 64.5 56V78C64.5 79.933 66.067 81.5 68 81.5H80C81.933 81.5 83.5 79.933 83.5 78V56ZM80 55.5C80.2761 55.5 80.5 55.7239 80.5 56V78C80.5 78.2761 80.2761 78.5 80 78.5H68C67.7238 78.5 67.5 78.2761 67.5 78V56C67.5 55.7239 67.7238 55.5 68 55.5H80Z" fill="url(#paint4_linear_3085_95906)"/>
<path d="M54.5 37.5C54.5 38.3284 53.8284 39 53 39C52.1716 39 51.5 38.3284 51.5 37.5C51.5 36.6716 52.1716 36 53 36C53.8284 36 54.5 36.6716 54.5 37.5Z" fill="url(#paint5_linear_3085_95906)"/>
<path d="M46.5606 45.4393C47.1464 46.0251 47.1464 46.9749 46.5606 47.5607L42.0606 52.0607C41.4749 52.6464 40.5251 52.6464 39.9393 52.0607L37.4393 49.5607C36.8535 48.9749 36.8535 48.0251 37.4393 47.4393C38.0251 46.8535 38.9749 46.8535 39.5606 47.4393L41 48.8787L44.4393 45.4393C45.0251 44.8536 45.9749 44.8536 46.5606 45.4393Z" fill="url(#paint6_linear_3085_95906)"/>
<defs>
<linearGradient id="paint0_linear_3085_95906" x1="83.5" y1="81.5" x2="32.645" y2="26.6564" gradientUnits="userSpaceOnUse">
<stop stop-color="#3D98BF"/>
<stop offset="1" stop-color="#53B8E0"/>
</linearGradient>
<linearGradient id="paint1_linear_3085_95906" x1="83.5" y1="81.5" x2="32.645" y2="26.6564" gradientUnits="userSpaceOnUse">
<stop stop-color="#3D98BF"/>
<stop offset="1" stop-color="#53B8E0"/>
</linearGradient>
<linearGradient id="paint2_linear_3085_95906" x1="83.5" y1="81.5" x2="32.645" y2="26.6564" gradientUnits="userSpaceOnUse">
<stop stop-color="#3D98BF"/>
<stop offset="1" stop-color="#53B8E0"/>
</linearGradient>
<linearGradient id="paint3_linear_3085_95906" x1="83.5" y1="81.5" x2="32.645" y2="26.6564" gradientUnits="userSpaceOnUse">
<stop stop-color="#3D98BF"/>
<stop offset="1" stop-color="#53B8E0"/>
</linearGradient>
<linearGradient id="paint4_linear_3085_95906" x1="83.5" y1="81.5" x2="32.645" y2="26.6564" gradientUnits="userSpaceOnUse">
<stop stop-color="#3D98BF"/>
<stop offset="1" stop-color="#53B8E0"/>
</linearGradient>
<linearGradient id="paint5_linear_3085_95906" x1="83.5" y1="81.5" x2="32.645" y2="26.6564" gradientUnits="userSpaceOnUse">
<stop stop-color="#3D98BF"/>
<stop offset="1" stop-color="#53B8E0"/>
</linearGradient>
<linearGradient id="paint6_linear_3085_95906" x1="83.5" y1="81.5" x2="32.645" y2="26.6564" gradientUnits="userSpaceOnUse">
<stop stop-color="#3D98BF"/>
<stop offset="1" stop-color="#53B8E0"/>
</linearGradient>
</defs>
</svg>
