<svg width="112" height="112" viewBox="0 0 112 112" fill="none" xmlns="http://www.w3.org/2000/svg">
<rect width="112" height="112" rx="56" fill="#48A8D0" fill-opacity="0.12"/>
<path fill-rule="evenodd" clip-rule="evenodd" d="M52.2992 29.3477C52.9019 28.8017 53.6861 28.5 54.4987 28.5C55.3112 28.5 56.0955 28.8016 56.6982 29.3475L74.4267 45.4042C74.7643 45.7099 75.0344 46.083 75.2194 46.4995C75.4044 46.9161 75.5 47.3668 75.5 47.8227V52C75.5 52.8284 74.8284 53.5 74 53.5C73.1716 53.5 72.5 52.8284 72.5 52V47.8227C72.5 47.7865 72.4924 47.7505 72.4775 47.717C72.4626 47.6835 72.4407 47.653 72.4128 47.6277L54.6843 31.5711C54.6344 31.5259 54.5683 31.5 54.4988 31.5C54.4292 31.5 54.3631 31.5259 54.3132 31.5711L36.5872 47.6277C36.5593 47.6529 36.5373 47.6834 36.5225 47.7169C36.5076 47.7504 36.5 47.7864 36.5 47.8226V68.5H41.5V55C41.5 54.1716 42.1716 53.5 43 53.5L51 53.5C51.8285 53.5 52.5 54.1716 52.5 55V68.5H55C55.8284 68.5 56.5 69.1716 56.5 70C56.5 70.8284 55.8284 71.5 55 71.5H30C29.1716 71.5 28.5 70.8284 28.5 70C28.5 69.1716 29.1716 68.5 30 68.5H33.5V47.8226C33.5 47.3668 33.5956 46.9161 33.7806 46.4995C33.9655 46.083 34.2356 45.71 34.5731 45.4042L52.2992 29.3477ZM49.5 68.5H44.5V56.5L49.5 56.5V68.5Z" fill="url(#paint0_linear_3085_95921)"/>
<path d="M76.5607 65.4393C77.1464 66.0251 77.1464 66.9749 76.5607 67.5607L72.0607 72.0607C71.4749 72.6464 70.5251 72.6464 69.9393 72.0607L67.4393 69.5607C66.8536 68.9749 66.8536 68.0251 67.4393 67.4393C68.0251 66.8536 68.9749 66.8536 69.5607 67.4393L71 68.8787L74.4393 65.4393C75.0251 64.8536 75.9749 64.8536 76.5607 65.4393Z" fill="url(#paint1_linear_3085_95921)"/>
<path fill-rule="evenodd" clip-rule="evenodd" d="M83.4995 68.5C83.4995 61.8726 78.1269 56.5 71.4995 56.5C64.8721 56.5 59.4995 61.8726 59.4995 68.5C59.4995 71.2733 60.4403 73.8268 62.02 75.8589L56.9395 80.9395C56.3537 81.5252 56.3537 82.475 56.9395 83.0608C57.5252 83.6466 58.475 83.6466 59.0608 83.0608L64.1415 77.9801C66.1734 79.5595 68.7266 80.5 71.4995 80.5C78.1269 80.5 83.4995 75.1274 83.4995 68.5ZM71.4995 59.5C76.4701 59.5 80.4995 63.5294 80.4995 68.5C80.4995 73.4706 76.4701 77.5 71.4995 77.5C66.5289 77.5 62.4995 73.4706 62.4995 68.5C62.4995 63.5294 66.5289 59.5 71.4995 59.5Z" fill="url(#paint2_linear_3085_95921)"/>
<path fill-rule="evenodd" clip-rule="evenodd" d="M54.5 39.5C52.0147 39.5 50 41.5147 50 44C50 46.4853 52.0147 48.5 54.5 48.5C56.9853 48.5 59 46.4853 59 44C59 41.5147 56.9853 39.5 54.5 39.5ZM53 44C53 43.1716 53.6716 42.5 54.5 42.5C55.3284 42.5 56 43.1716 56 44C56 44.8284 55.3284 45.5 54.5 45.5C53.6716 45.5 53 44.8284 53 44Z" fill="url(#paint3_linear_3085_95921)"/>
<defs>
<linearGradient id="paint0_linear_3085_95921" x1="83.4995" y1="83.5001" x2="28.4994" y2="28.5006" gradientUnits="userSpaceOnUse">
<stop stop-color="#3D98BF"/>
<stop offset="1" stop-color="#53B8E0"/>
</linearGradient>
<linearGradient id="paint1_linear_3085_95921" x1="83.4995" y1="83.5001" x2="28.4994" y2="28.5006" gradientUnits="userSpaceOnUse">
<stop stop-color="#3D98BF"/>
<stop offset="1" stop-color="#53B8E0"/>
</linearGradient>
<linearGradient id="paint2_linear_3085_95921" x1="83.4995" y1="83.5001" x2="28.4994" y2="28.5006" gradientUnits="userSpaceOnUse">
<stop stop-color="#3D98BF"/>
<stop offset="1" stop-color="#53B8E0"/>
</linearGradient>
<linearGradient id="paint3_linear_3085_95921" x1="83.4995" y1="83.5001" x2="28.4994" y2="28.5006" gradientUnits="userSpaceOnUse">
<stop stop-color="#3D98BF"/>
<stop offset="1" stop-color="#53B8E0"/>
</linearGradient>
</defs>
</svg>
