<svg width="89" height="96" viewBox="0 0 89 96" fill="none" xmlns="http://www.w3.org/2000/svg">
<rect x="0.666748" y="8" width="88" height="88" rx="44" fill="#48A8D0" fill-opacity="0.12"/>
<path fill-rule="evenodd" clip-rule="evenodd" d="M42.8159 36.6534C43.3221 36.1932 43.9816 35.9381 44.6658 35.9381C45.35 35.9381 46.0096 36.1931 46.5158 36.6533L59.0166 48.0182C59.3001 48.2759 59.5267 48.5901 59.6817 48.9405C59.8367 49.2909 59.9167 49.6698 59.9167 50.053V64.25H62.1667C62.9952 64.25 63.6667 64.9216 63.6667 65.75C63.6667 66.5784 62.9952 67.25 62.1667 67.25H27.1667C26.3383 67.25 25.6667 66.5784 25.6667 65.75C25.6667 64.9216 26.3383 64.25 27.1667 64.25H29.4167V50.0529C29.4167 49.6698 29.4968 49.2909 29.6518 48.9405C29.8068 48.5901 30.0333 48.276 30.3167 48.0182L42.8159 36.6534ZM32.4167 64.25H39.4158V56.9987C39.4158 56.2694 39.7056 55.5699 40.2213 55.0542C40.737 54.5384 41.4365 54.2487 42.1658 54.2487H47.1658C47.8952 54.2487 48.5947 54.5384 49.1104 55.0542C49.6261 55.5699 49.9158 56.2694 49.9158 56.9987V64.25H56.9167V50.1636L44.6659 39.026L32.4167 50.1635V64.25ZM44.8341 38.8731C44.8342 38.8729 44.8339 38.8732 44.8341 38.8731V38.8731ZM46.9158 64.25V57.2487H42.4158V64.25H46.9158Z" fill="#48A8D0"/>
<path d="M0.666748 16C0.666748 7.16344 7.83019 0 16.6667 0C25.5033 0 32.6667 7.16344 32.6667 16C32.6667 24.8366 25.5033 32 16.6667 32C7.83019 32 0.666748 24.8366 0.666748 16Z" fill="#48A8D0"/>
<path d="M16.2267 23V13.94C16.2267 13.6733 16.2267 13.4 16.2267 13.12C16.2401 12.8267 16.2534 12.52 16.2667 12.2C15.8134 12.64 15.2934 13.02 14.7067 13.34C14.1334 13.6467 13.5401 13.8667 12.9267 14L12.5267 12.14C12.8067 12.1 13.1334 12.0067 13.5067 11.86C13.8801 11.7133 14.2667 11.5267 14.6667 11.3C15.0667 11.0733 15.4334 10.8333 15.7667 10.58C16.1001 10.3133 16.3601 10.0533 16.5467 9.8H18.3467V23H16.2267Z" fill="white"/>
</svg>
