<svg width="89" height="96" viewBox="0 0 89 96" fill="none" xmlns="http://www.w3.org/2000/svg">
<rect x="0.666748" y="8" width="88" height="88" rx="44" fill="#48A8D0" fill-opacity="0.12"/>
<path d="M52.5775 49.335C53.1767 48.763 53.1988 47.8135 52.6268 47.2143C52.0548 46.615 51.1053 46.593 50.506 47.165L42.375 54.9263L38.8275 51.54C38.2282 50.968 37.2787 50.99 36.7067 51.5893C36.1347 52.1885 36.1568 53.138 36.756 53.71L41.3393 58.085C41.9189 58.6383 42.8311 58.6383 43.4107 58.085L52.5775 49.335Z" fill="#48A8D0"/>
<path fill-rule="evenodd" clip-rule="evenodd" d="M44.6668 34.25C42.9994 34.25 41.844 35.3785 41.1143 36.0913L41.1125 36.093C41.0425 36.1613 40.9742 36.2283 40.9075 36.2938C40.1466 37.04 39.5792 37.5967 38.8289 37.9074C38.0937 38.2119 37.3297 38.2138 36.2858 38.2165C36.1809 38.2168 36.0733 38.217 35.9625 38.2176C34.9239 38.2231 33.3207 38.2438 32.1156 39.4489C30.9105 40.6539 30.8899 42.2571 30.8844 43.2957C30.8838 43.4065 30.8835 43.5142 30.8832 43.619C30.8806 44.6629 30.8787 45.4269 30.5742 46.1621C30.2634 46.9124 29.7069 47.4798 28.9606 48.2406C28.8952 48.3073 28.8281 48.3757 28.7597 48.4457L28.758 48.4474C28.0452 49.1772 26.9167 50.3326 26.9167 51.9999C26.9167 53.6673 28.0452 54.8227 28.758 55.5525L28.7597 55.5542C28.8281 55.6243 28.8951 55.6925 28.9606 55.7593C29.7069 56.5202 30.2634 57.0876 30.5742 57.8379C30.847 58.4966 30.8227 59.1065 30.7857 60.0361C30.7795 60.1915 30.773 60.3559 30.7674 60.531C30.7313 61.6684 30.7756 63.2112 32.1156 64.5511C33.4556 65.8911 34.9983 65.9355 36.1358 65.8993C36.3108 65.8937 36.4752 65.8872 36.6306 65.881C37.5602 65.844 38.1702 65.8198 38.8288 66.0926C39.5791 66.4033 40.1465 66.9599 40.9073 67.7061C40.9741 67.7716 41.0424 67.8386 41.1124 67.907L41.1142 67.9087C41.8439 68.6215 42.9993 69.75 44.6667 69.75C46.3341 69.75 47.4895 68.6215 48.2192 67.9087L48.221 67.907C48.2494 67.8792 48.2776 67.8517 48.3055 67.8243C48.3463 67.7844 48.3864 67.745 48.4261 67.7061C49.1869 66.9599 49.7543 66.4034 50.5046 66.0926C51.2398 65.7881 52.0038 65.7862 53.0477 65.7835C53.1525 65.7832 53.2602 65.783 53.371 65.7824C54.4096 65.7769 56.0128 65.7562 57.2179 64.5511C58.423 63.3461 58.4436 61.7429 58.4491 60.7043C58.4497 60.5935 58.45 60.4858 58.4502 60.381C58.4529 59.337 58.4548 58.5731 58.7593 57.8379C59.0701 57.0876 59.6266 56.5202 60.3729 55.7594C60.4384 55.6926 60.5054 55.6243 60.5738 55.5543L60.5755 55.5526C61.2883 54.8228 62.4167 53.6674 62.4167 52.0001C62.4167 50.3327 61.2883 49.1773 60.5755 48.4475L60.5738 48.4458C60.5054 48.3757 60.4384 48.3075 60.3729 48.2407C59.6266 47.4798 59.0701 46.9124 58.7593 46.1621C58.4549 45.4269 58.4529 44.663 58.4503 43.6191C58.45 43.5142 58.4497 43.4065 58.4491 43.2957C58.4436 42.2571 58.423 40.6539 57.2179 39.4489C56.0128 38.2438 54.4096 38.2231 53.371 38.2176C53.2602 38.217 53.1526 38.2168 53.0477 38.2165C52.0038 38.2138 51.2398 38.2119 50.5047 37.9074C49.7544 37.5967 49.187 37.0401 48.4262 36.2939C48.3594 36.2284 48.2911 36.1614 48.2211 36.093L48.2193 36.0913C47.4896 35.3785 46.3342 34.25 44.6668 34.25ZM39.9768 40.6791C41.301 40.1307 42.2874 39.152 42.9843 38.4607C43.0627 38.3829 43.1375 38.3087 43.2087 38.2391C44.0502 37.4172 44.3816 37.25 44.6668 37.25C44.952 37.25 45.2834 37.4172 46.1248 38.2391C46.196 38.3086 46.2707 38.3827 46.3491 38.4605C47.0459 39.1518 48.0326 40.1307 49.3567 40.6791C50.679 41.2268 52.0575 41.2215 53.0266 41.2179C53.1422 41.2175 53.2519 41.217 53.3551 41.2176C54.498 41.2237 54.8635 41.3371 55.0966 41.5702C55.3296 41.8032 55.4431 42.1688 55.4492 43.3117C55.4497 43.4148 55.4493 43.5246 55.4489 43.6402C55.4452 44.6093 55.44 45.9878 55.9877 47.31C56.5361 48.6342 57.5147 49.6207 58.2061 50.3175C58.2839 50.396 58.3581 50.4708 58.4276 50.542C59.2495 51.3834 59.4167 51.7148 59.4167 52.0001C59.4167 52.2853 59.2495 52.6166 58.4276 53.4581C58.3581 53.5293 58.2839 53.6041 58.2061 53.6825C57.5147 54.3794 56.5361 55.3658 55.9877 56.69C55.44 58.0123 55.4452 59.3907 55.4489 60.3598C55.4493 60.4754 55.4497 60.5852 55.4492 60.6883C55.4431 61.8312 55.3296 62.1968 55.0966 62.4298C54.8635 62.6629 54.4979 62.7764 53.3551 62.7824C53.2519 62.783 53.1422 62.7826 53.0266 62.7821C52.0574 62.7785 50.679 62.7733 49.3567 63.3209C48.0325 63.8693 47.0461 64.848 46.3492 65.5393C46.2708 65.6171 46.196 65.6913 46.1248 65.7609C45.2833 66.5828 44.9519 66.75 44.6667 66.75C44.3815 66.75 44.0501 66.5828 43.2087 65.7609C43.1375 65.6914 43.0627 65.6172 42.9842 65.5393C42.2874 64.848 41.3009 63.8693 39.9768 63.3209C38.6542 62.7731 37.3204 62.8393 36.4157 62.8842C36.2806 62.8909 36.155 62.8972 36.0405 62.9008C35.0749 62.9315 34.6488 62.8417 34.2369 62.4298C33.825 62.0179 33.7352 61.5919 33.7659 60.6263C33.7696 60.5118 33.7758 60.3862 33.7825 60.251C33.8274 59.3463 33.8936 58.0126 33.3458 56.69C32.7974 55.3658 31.8188 54.3793 31.1274 53.6825C31.0496 53.604 30.9754 53.5292 30.9059 53.458C30.084 52.6166 29.9167 52.2852 29.9167 51.9999C29.9167 51.7147 30.084 51.3834 30.9059 50.5419C30.9753 50.4708 31.0494 50.3961 31.1271 50.3178C31.8184 49.621 32.7974 48.6342 33.3458 47.31C33.8935 45.9877 33.8883 44.6093 33.8846 43.6402C33.8842 43.5246 33.8838 43.4148 33.8843 43.3117C33.8904 42.1688 34.0039 41.8032 34.2369 41.5702C34.47 41.3371 34.8355 41.2237 35.9784 41.2176C36.0816 41.217 36.1913 41.2174 36.3069 41.2179C37.276 41.2215 38.6545 41.2267 39.9768 40.6791Z" fill="#48A8D0"/>
<path d="M0.666748 16C0.666748 7.16344 7.83019 0 16.6667 0C25.5033 0 32.6667 7.16344 32.6667 16C32.6667 24.8366 25.5033 32 16.6667 32C7.83019 32 0.666748 24.8366 0.666748 16Z" fill="#48A8D0"/>
<path d="M12.0667 23V21.44C13.3334 20.5333 14.3934 19.7333 15.2467 19.04C16.1134 18.3467 16.8067 17.7067 17.3267 17.12C17.8467 16.5333 18.2201 15.98 18.4467 15.46C18.6867 14.9267 18.8067 14.3867 18.8067 13.84C18.8067 13.1333 18.5867 12.56 18.1467 12.12C17.7067 11.68 17.0934 11.46 16.3067 11.46C15.4801 11.46 14.8201 11.74 14.3267 12.3C13.8467 12.8467 13.5734 13.6 13.5067 14.56L11.6467 13.7C11.7401 12.86 11.9867 12.1333 12.3867 11.52C12.7867 10.9067 13.3267 10.4333 14.0067 10.1C14.7001 9.76667 15.5001 9.6 16.4067 9.6C17.1534 9.6 17.8067 9.70667 18.3667 9.92C18.9401 10.1333 19.4201 10.4333 19.8067 10.82C20.1934 11.1933 20.4867 11.6333 20.6867 12.14C20.9001 12.6467 21.0067 13.1867 21.0067 13.76C21.0067 14.6 20.8001 15.4133 20.3867 16.2C19.9734 16.9733 19.3201 17.7667 18.4267 18.58C17.5334 19.3933 16.3601 20.2667 14.9067 21.2V21.24C15.0667 21.2133 15.2867 21.2 15.5667 21.2C15.8467 21.1867 16.1267 21.18 16.4067 21.18C16.6867 21.1667 16.9134 21.16 17.0867 21.16H21.2467V23H12.0667Z" fill="white"/>
</svg>
