<svg width="89" height="96" viewBox="0 0 89 96" fill="none" xmlns="http://www.w3.org/2000/svg">
<rect x="0.666748" y="8" width="88" height="88" rx="44" fill="#48A8D0" fill-opacity="0.12"/>
<path fill-rule="evenodd" clip-rule="evenodd" d="M31.2788 35.8636C30.7598 35.7946 30.2318 35.8752 29.7569 36.0961C29.2821 36.3169 28.8802 36.6687 28.5985 37.1101C28.3168 37.5516 28.167 38.0643 28.1667 38.5879V62.9113C28.167 63.435 28.3168 63.9485 28.5985 64.3899C28.8802 64.8313 29.2821 65.1831 29.7569 65.404C30.2318 65.6248 30.7598 65.7055 31.2788 65.6364C31.7971 65.5676 32.2849 65.3524 32.6852 65.0161C36.5801 61.7494 40.5468 60.1194 43.5336 59.3056C44.9066 58.9315 46.0691 58.7309 46.9167 58.6235V63.831C46.9167 64.2838 47.0285 64.7295 47.2421 65.1286C47.4558 65.5278 47.7646 65.868 48.1413 66.1192L49.8588 67.2642C50.2255 67.5086 50.6456 67.6614 51.0836 67.7095C51.5217 67.7577 51.9649 67.6999 52.3759 67.541C52.7869 67.3821 53.1538 67.1267 53.4455 66.7964C53.7372 66.4661 53.9453 66.0705 54.0522 65.643L55.861 58.4075C57.4742 58.1559 58.978 57.399 60.1468 56.2301C61.6002 54.7767 62.4167 52.8054 62.4167 50.75C62.4167 48.6946 61.6002 46.7233 60.1468 45.2699C58.6934 43.8165 56.7222 43 54.6667 43H48.4231C48.421 43 48.4189 43 48.4168 43C48.4168 43 48.4168 43 48.4168 43L48.4113 42.9999C48.4015 42.9998 48.3837 42.9995 48.3583 42.9988C48.3074 42.9975 48.2259 42.9947 48.116 42.9888C47.896 42.9769 47.5624 42.9526 47.1322 42.9027C46.2712 42.8029 45.0268 42.6013 43.5336 42.1944C40.5471 41.3807 36.5808 39.7509 32.6862 36.4847C32.2857 36.148 31.7975 35.9325 31.2788 35.8636ZM46.9167 45.8974C46.8742 45.8928 46.8309 45.8879 46.7867 45.8827C45.7966 45.768 44.4022 45.5404 42.745 45.0889C39.5362 44.2147 35.3272 42.4963 31.1667 39.1202V62.3798C35.3272 59.0037 39.5362 57.2854 42.745 56.4111C44.4022 55.9596 45.7966 55.7321 46.7867 55.6173C46.8309 55.6122 46.8742 55.6073 46.9167 55.6026V45.8974ZM49.9167 58.5V63.6972L51.2278 64.5712L52.7456 58.5H49.9167ZM54.6326 55.5H49.9167V46H54.6667C55.9265 46 57.1347 46.5005 58.0255 47.3913C58.9163 48.2821 59.4167 49.4902 59.4167 50.75C59.4167 52.0098 58.9163 53.218 58.0255 54.1088C57.1413 54.993 55.9444 55.4926 54.6947 55.4999C54.6739 55.4995 54.6532 55.4996 54.6326 55.5Z" fill="#48A8D0"/>
<path d="M0.666748 16C0.666748 7.16344 7.83019 0 16.6667 0C25.5033 0 32.6667 7.16344 32.6667 16C32.6667 24.8366 25.5033 32 16.6667 32C7.83019 32 0.666748 24.8366 0.666748 16Z" fill="#48A8D0"/>
<path d="M16.5267 23.2C15.2867 23.2 14.2067 22.9267 13.2867 22.38C12.3801 21.82 11.7601 21.04 11.4267 20.04L13.5067 19.06C13.6267 19.54 13.8134 19.9533 14.0667 20.3C14.3201 20.6467 14.6534 20.9133 15.0667 21.1C15.4801 21.2733 15.9934 21.36 16.6067 21.36C17.1267 21.36 17.5667 21.2667 17.9267 21.08C18.2867 20.8933 18.5601 20.6333 18.7467 20.3C18.9467 19.9667 19.0467 19.5867 19.0467 19.16C19.0467 18.72 18.9601 18.3533 18.7867 18.06C18.6267 17.7667 18.3667 17.5533 18.0067 17.42C17.6601 17.2867 17.2134 17.22 16.6667 17.22C16.5067 17.22 16.3401 17.2267 16.1667 17.24C16.0067 17.24 15.8334 17.2533 15.6467 17.28V15.48C15.7667 15.4933 15.8801 15.5067 15.9867 15.52C16.1067 15.52 16.2201 15.52 16.3267 15.52C17.1934 15.52 17.8134 15.3467 18.1867 15C18.5601 14.6533 18.7467 14.1133 18.7467 13.38C18.7467 12.7533 18.5534 12.2733 18.1667 11.94C17.7934 11.6067 17.2534 11.44 16.5467 11.44C15.8134 11.44 15.2401 11.6133 14.8267 11.96C14.4267 12.2933 14.1201 12.78 13.9067 13.42L11.9467 12.6C12.1334 11.9867 12.4467 11.4533 12.8867 11C13.3267 10.5467 13.8667 10.2 14.5067 9.96C15.1601 9.70667 15.8734 9.58 16.6467 9.58C17.5934 9.58 18.3801 9.73333 19.0067 10.04C19.6467 10.3467 20.1201 10.7667 20.4267 11.3C20.7467 11.8333 20.9067 12.4267 20.9067 13.08C20.9067 13.5867 20.8334 14.0333 20.6867 14.42C20.5401 14.7933 20.3401 15.12 20.0867 15.4C19.8467 15.6667 19.5801 15.8733 19.2867 16.02C19.0067 16.1667 18.7201 16.2667 18.4267 16.32V16.36C18.8134 16.3733 19.1667 16.4533 19.4867 16.6C19.8201 16.7333 20.1134 16.9267 20.3667 17.18C20.6334 17.42 20.8401 17.7133 20.9867 18.06C21.1334 18.4067 21.2067 18.7867 21.2067 19.2C21.2067 20 21.0067 20.7 20.6067 21.3C20.2067 21.9 19.6534 22.3667 18.9467 22.7C18.2534 23.0333 17.4467 23.2 16.5267 23.2Z" fill="white"/>
</svg>
