<svg width="89" height="96" viewBox="0 0 89 96" fill="none" xmlns="http://www.w3.org/2000/svg">
<rect x="0.666748" y="8" width="88" height="88" rx="44" fill="#48A8D0" fill-opacity="0.12"/>
<path d="M38.1667 53.25C38.1667 52.4216 38.8383 51.75 39.6667 51.75H49.6667C50.4952 51.75 51.1667 52.4216 51.1667 53.25C51.1667 54.0784 50.4952 54.75 49.6667 54.75H39.6667C38.8383 54.75 38.1667 54.0784 38.1667 53.25Z" fill="#48A8D0"/>
<path d="M39.6667 56.75C38.8383 56.75 38.1667 57.4216 38.1667 58.25C38.1667 59.0784 38.8383 59.75 39.6667 59.75H49.6667C50.4952 59.75 51.1667 59.0784 51.1667 58.25C51.1667 57.4216 50.4952 56.75 49.6667 56.75H39.6667Z" fill="#48A8D0"/>
<path fill-rule="evenodd" clip-rule="evenodd" d="M48.4167 35.5H33.4167C32.6874 35.5 31.9879 35.7898 31.4721 36.3055C30.9565 36.8212 30.6667 37.5207 30.6667 38.25V65.75C30.6667 66.4793 30.9565 67.1788 31.4721 67.6945C31.9879 68.2102 32.6873 68.5 33.4167 68.5H55.9168C56.6462 68.5 57.3456 68.2102 57.8613 67.6945C58.377 67.1788 58.6668 66.4793 58.6667 65.75V45.8118C58.6676 45.7913 58.668 45.7707 58.668 45.75C58.668 45.3172 58.4847 44.9273 58.1915 44.6535L49.4779 35.9394C49.391 35.8525 49.2945 35.7773 49.1909 35.715C48.9773 35.586 48.729 35.5088 48.4632 35.5007C48.4479 35.5002 48.4321 35.5 48.4167 35.5ZM46.9167 38.5H33.6667V65.5H55.6667V47.25H48.4167C47.5883 47.25 46.9167 46.5784 46.9167 45.75V38.5ZM49.9167 40.621V44.25H53.5456L49.9167 40.621Z" fill="#48A8D0"/>
<path d="M0.666748 16C0.666748 7.16344 7.83019 0 16.6667 0C25.5033 0 32.6667 7.16344 32.6667 16C32.6667 24.8366 25.5033 32 16.6667 32C7.83019 32 0.666748 24.8366 0.666748 16Z" fill="#48A8D0"/>
<path d="M17.4867 23V19.7H11.0467V18.24C11.0734 18.1733 11.1134 18.0933 11.1667 18C11.2334 17.9067 11.3067 17.8 11.3867 17.68L16.8867 9.8H19.5067V18.04H21.7467V19.7H19.5067V23H17.4867ZM13.0467 18.04H17.4867V13.38C17.4867 13.06 17.4934 12.7333 17.5067 12.4C17.5334 12.0533 17.5534 11.7133 17.5667 11.38H17.5267C17.3801 11.7 17.1867 12.0533 16.9467 12.44C16.7201 12.8133 16.5067 13.14 16.3067 13.42L13.1867 17.86C13.1601 17.8867 13.1334 17.9133 13.1067 17.94C13.0934 17.9667 13.0734 18 13.0467 18.04Z" fill="white"/>
</svg>
