<svg width="89" height="96" viewBox="0 0 89 96" fill="none" xmlns="http://www.w3.org/2000/svg">
<rect x="0.666748" y="8" width="88" height="88" rx="44" fill="#48A8D0" fill-opacity="0.12"/>
<path fill-rule="evenodd" clip-rule="evenodd" d="M42.9385 54.2855C43.7889 53.3525 44.3074 52.1118 44.3074 50.75C44.3074 47.8505 41.9569 45.5 39.0574 45.5C36.1579 45.5 33.8074 47.8505 33.8074 50.75C33.8074 52.1118 34.3259 53.3526 35.1763 54.2855C35.1428 54.3104 35.1096 54.3356 35.0766 54.3612C33.9373 55.2435 33.1233 56.4794 32.7627 57.8745C32.5554 58.6766 33.0375 59.4949 33.8396 59.7022C34.6416 59.9095 35.4599 59.4274 35.6672 58.6253C35.8615 57.8739 36.2998 57.2083 36.9135 56.7331C37.5271 56.2579 38.2812 56 39.0573 56C39.8334 56 40.5875 56.2578 41.2012 56.733C41.8149 57.2081 42.2533 57.8737 42.4476 58.6251C42.6549 59.4271 43.4732 59.9092 44.2753 59.7018C45.0773 59.4945 45.5594 58.6762 45.352 57.8741C44.9913 56.4789 44.1773 55.2431 43.0379 54.3609C43.005 54.3354 42.9719 54.3103 42.9385 54.2855ZM36.8074 50.75C36.8074 49.5074 37.8147 48.5 39.0574 48.5C40.3 48.5 41.3074 49.5074 41.3074 50.75C41.3074 51.9926 40.3 53 39.0574 53C37.8148 52.9999 36.8074 51.9926 36.8074 50.75Z" fill="#48A8D0"/>
<path d="M48.4167 48C47.5883 48 46.9167 48.6716 46.9167 49.5C46.9167 50.3284 47.5883 51 48.4167 51H54.6667C55.4952 51 56.1667 50.3284 56.1667 49.5C56.1667 48.6716 55.4952 48 54.6667 48H48.4167Z" fill="#48A8D0"/>
<path d="M48.4167 53C47.5883 53 46.9167 53.6716 46.9167 54.5C46.9167 55.3284 47.5883 56 48.4167 56H54.6667C55.4952 56 56.1667 55.3284 56.1667 54.5C56.1667 53.6716 55.4952 53 54.6667 53H48.4167Z" fill="#48A8D0"/>
<path fill-rule="evenodd" clip-rule="evenodd" d="M30.9167 38C29.398 38 28.1667 39.2312 28.1667 40.75V63.25C28.1667 64.7688 29.398 66 30.9167 66H58.4167C59.9355 66 61.1667 64.7688 61.1667 63.25V40.75C61.1667 39.2312 59.9355 38 58.4167 38H30.9167ZM31.1667 63V41H58.1667V63H31.1667Z" fill="#48A8D0"/>
<path d="M0.666748 16C0.666748 7.16344 7.83019 0 16.6667 0C25.5033 0 32.6667 7.16344 32.6667 16C32.6667 24.8366 25.5033 32 16.6667 32C7.83019 32 0.666748 24.8366 0.666748 16Z" fill="#48A8D0"/>
<path d="M16.4067 23.2C15.2334 23.2 14.2667 22.9467 13.5067 22.44C12.7601 21.9333 12.1667 21.2 11.7267 20.24L13.7267 19.2C13.9267 19.84 14.2267 20.3667 14.6267 20.78C15.0401 21.18 15.6467 21.38 16.4467 21.38C17.0067 21.38 17.4801 21.28 17.8667 21.08C18.2667 20.8667 18.5734 20.5733 18.7867 20.2C19.0001 19.8133 19.1067 19.3533 19.1067 18.82C19.1067 18.26 19.0067 17.7933 18.8067 17.42C18.6067 17.0467 18.3201 16.7667 17.9467 16.58C17.5734 16.38 17.1067 16.28 16.5467 16.28C16.1601 16.28 15.8001 16.32 15.4667 16.4C15.1334 16.48 14.8334 16.6067 14.5667 16.78C14.3001 16.94 14.0667 17.1533 13.8667 17.42L12.1067 17.08L12.9067 9.8H20.5867V11.64H14.6067L14.1267 15.36L14.0867 15.58H14.1267C14.4334 15.2467 14.8267 14.9867 15.3067 14.8C15.8001 14.6133 16.3801 14.52 17.0467 14.52C17.9001 14.52 18.6334 14.7 19.2467 15.06C19.8601 15.4067 20.3401 15.8933 20.6867 16.52C21.0334 17.1467 21.2067 17.8733 21.2067 18.7C21.2067 19.42 21.0867 20.06 20.8467 20.62C20.6067 21.18 20.2667 21.6533 19.8267 22.04C19.3867 22.4267 18.8734 22.72 18.2867 22.92C17.7134 23.1067 17.0867 23.2 16.4067 23.2Z" fill="white"/>
</svg>
