<svg width="89" height="96" viewBox="0 0 89 96" fill="none" xmlns="http://www.w3.org/2000/svg">
<rect x="0.666748" y="8" width="88" height="88" rx="44" fill="#48A8D0" fill-opacity="0.12"/>
<path d="M46.1667 43.25C46.1667 42.4216 45.4952 41.75 44.6667 41.75C43.8383 41.75 43.1667 42.4216 43.1667 43.25V44.25H42.7917C41.5651 44.25 40.3887 44.7373 39.5214 45.6046C38.654 46.472 38.1667 47.6484 38.1667 48.875C38.1667 50.1016 38.654 51.278 39.5214 52.1454C40.3887 53.0127 41.5651 53.5 42.7917 53.5H46.5417C46.9727 53.5 47.386 53.6712 47.6908 53.976C47.9955 54.2807 48.1667 54.694 48.1667 55.125C48.1667 55.556 47.9955 55.9693 47.6908 56.274C47.386 56.5788 46.9727 56.75 46.5417 56.75H40.9167C40.0883 56.75 39.4167 57.4216 39.4167 58.25C39.4167 59.0784 40.0883 59.75 40.9167 59.75H43.1667V60.75C43.1667 61.5784 43.8383 62.25 44.6667 62.25C45.4952 62.25 46.1667 61.5784 46.1667 60.75V59.75H46.5417C47.7684 59.75 48.9448 59.2627 49.8121 58.3954C50.6795 57.528 51.1667 56.3516 51.1667 55.125C51.1667 53.8984 50.6795 52.722 49.8121 51.8546C48.9448 50.9873 47.7684 50.5 46.5417 50.5H42.7917C42.3608 50.5 41.9474 50.3288 41.6427 50.024C41.338 49.7193 41.1667 49.306 41.1667 48.875C41.1667 48.444 41.338 48.0307 41.6427 47.726C41.9474 47.4212 42.3608 47.25 42.7917 47.25H48.4167C49.2452 47.25 49.9167 46.5784 49.9167 45.75C49.9167 44.9216 49.2452 44.25 48.4167 44.25H46.1667V43.25Z" fill="#48A8D0"/>
<path fill-rule="evenodd" clip-rule="evenodd" d="M28.1667 52C28.1667 42.8873 35.554 35.5 44.6667 35.5C53.7794 35.5 61.1667 42.8873 61.1667 52C61.1667 61.1127 53.7794 68.5 44.6667 68.5C35.554 68.5 28.1667 61.1127 28.1667 52ZM44.6667 38.5C37.2109 38.5 31.1667 44.5442 31.1667 52C31.1667 59.4558 37.2109 65.5 44.6667 65.5C52.1226 65.5 58.1667 59.4558 58.1667 52C58.1667 44.5442 52.1226 38.5 44.6667 38.5Z" fill="#48A8D0"/>
<path d="M0.666748 16C0.666748 7.16344 7.83019 0 16.6667 0C25.5033 0 32.6667 7.16344 32.6667 16C32.6667 24.8366 25.5033 32 16.6667 32C7.83019 32 0.666748 24.8366 0.666748 16Z" fill="#48A8D0"/>
<path d="M16.7467 9.6C17.4534 9.6 18.0801 9.7 18.6267 9.9C19.1734 10.0867 19.6467 10.3867 20.0467 10.8C20.4601 11.2133 20.8001 11.7533 21.0667 12.42L19.1867 13.32C19.0001 12.7467 18.7001 12.2933 18.2867 11.96C17.8867 11.6267 17.3267 11.46 16.6067 11.46C16.0867 11.46 15.6267 11.5867 15.2267 11.84C14.8267 12.0933 14.4867 12.4533 14.2067 12.92C13.9267 13.3733 13.7134 13.9133 13.5667 14.54C13.4201 15.1533 13.3467 15.82 13.3467 16.54C13.3467 16.58 13.3467 16.6267 13.3467 16.68C13.3467 16.72 13.3467 16.7933 13.3467 16.9L13.4267 16.94C13.5734 16.4067 13.8334 15.98 14.2067 15.66C14.5934 15.3267 15.0267 15.08 15.5067 14.92C15.9867 14.76 16.4601 14.68 16.9267 14.68C17.8067 14.68 18.5734 14.8533 19.2267 15.2C19.8801 15.5333 20.3867 16.0133 20.7467 16.64C21.1201 17.2667 21.3067 18.0133 21.3067 18.88C21.3067 19.76 21.1134 20.5267 20.7267 21.18C20.3401 21.82 19.8001 22.32 19.1067 22.68C18.4267 23.0267 17.6067 23.2 16.6467 23.2C15.5267 23.2 14.5734 22.92 13.7867 22.36C13.0001 21.8 12.4001 21.0133 11.9867 20C11.5734 18.9867 11.3667 17.8 11.3667 16.44C11.3667 14.9333 11.6001 13.6733 12.0667 12.66C12.5467 11.6467 13.1934 10.8867 14.0067 10.38C14.8201 9.86 15.7334 9.6 16.7467 9.6ZM16.6067 16.46C16.1001 16.46 15.6534 16.5667 15.2667 16.78C14.8801 16.98 14.5734 17.26 14.3467 17.62C14.1334 17.98 14.0267 18.4 14.0267 18.88C14.0267 19.3467 14.1401 19.7667 14.3667 20.14C14.6067 20.5133 14.9201 20.8133 15.3067 21.04C15.6934 21.2533 16.1267 21.36 16.6067 21.36C17.4201 21.36 18.0534 21.14 18.5067 20.7C18.9601 20.26 19.1867 19.6533 19.1867 18.88C19.1867 18.3867 19.0867 17.96 18.8867 17.6C18.6867 17.2267 18.3934 16.9467 18.0067 16.76C17.6334 16.56 17.1667 16.46 16.6067 16.46Z" fill="white"/>
</svg>
