<svg width="112" height="112" viewBox="0 0 112 112" fill="none" xmlns="http://www.w3.org/2000/svg">
<rect width="112" height="112" rx="56" fill="#48A8D0" fill-opacity="0.12"/>
<path fill-rule="evenodd" clip-rule="evenodd" d="M52 31.5C51.1716 31.5 50.5 32.1716 50.5 33V53.8787L46.4393 57.9393C45.8536 58.5251 45.8536 59.4749 46.4393 60.0607C47.0251 60.6464 47.9749 60.6464 48.5607 60.0607L52 56.6213L76.4393 81.0607C77.0251 81.6464 77.9749 81.6464 78.5607 81.0607C79.1464 80.4749 79.1464 79.5251 78.5607 78.9393L53.5 53.8787V49.5H75C75.5766 49.5 76.1022 49.1695 76.352 48.6498C76.6017 48.1301 76.5315 47.5132 76.1713 47.063L70.9209 40.5L76.1713 33.937C76.5315 33.4868 76.6017 32.8699 76.352 32.3502C76.1022 31.8305 75.5766 31.5 75 31.5H52ZM71.8791 46.5H53.5V34.5H71.8791L67.8287 39.563C67.3904 40.1108 67.3904 40.8892 67.8287 41.437L71.8791 46.5Z" fill="url(#paint0_linear_3085_94583)"/>
<path d="M39.9393 58.4393C40.5251 57.8536 41.4749 57.8536 42.0607 58.4393L56.5607 72.9393C57.1464 73.5251 57.1464 74.4749 56.5607 75.0607C55.9749 75.6464 55.0251 75.6464 54.4393 75.0607L41 61.6213L32.0607 70.5607C31.4749 71.1464 30.5251 71.1464 29.9393 70.5607C29.3536 69.9749 29.3536 69.0251 29.9393 68.4393L39.9393 58.4393Z" fill="url(#paint1_linear_3085_94583)"/>
<path d="M71.0607 60.9393C70.4749 60.3536 69.5251 60.3536 68.9393 60.9393L67.4393 62.4393C66.8536 63.0251 66.8536 63.9749 67.4393 64.5607C68.0251 65.1464 68.9749 65.1464 69.5607 64.5607L70 64.1213L75.4393 69.5607C76.0251 70.1464 76.9749 70.1464 77.5607 69.5607C78.1464 68.9749 78.1464 68.0251 77.5607 67.4393L71.0607 60.9393Z" fill="url(#paint2_linear_3085_94583)"/>
<path fill-rule="evenodd" clip-rule="evenodd" d="M55.5 38C55.5 37.1716 56.1716 36.5 57 36.5H64C64.8284 36.5 65.5 37.1716 65.5 38C65.5 38.8284 64.8284 39.5 64 39.5H57C56.1716 39.5 55.5 38.8284 55.5 38Z" fill="url(#paint3_linear_3085_94583)"/>
<defs>
<linearGradient id="paint0_linear_3085_94583" x1="79" y1="81.5" x2="29.0025" y2="32.0025" gradientUnits="userSpaceOnUse">
<stop stop-color="#3D98BF"/>
<stop offset="1" stop-color="#53B8E0"/>
</linearGradient>
<linearGradient id="paint1_linear_3085_94583" x1="79" y1="81.5" x2="29.0025" y2="32.0025" gradientUnits="userSpaceOnUse">
<stop stop-color="#3D98BF"/>
<stop offset="1" stop-color="#53B8E0"/>
</linearGradient>
<linearGradient id="paint2_linear_3085_94583" x1="79" y1="81.5" x2="29.0025" y2="32.0025" gradientUnits="userSpaceOnUse">
<stop stop-color="#3D98BF"/>
<stop offset="1" stop-color="#53B8E0"/>
</linearGradient>
<linearGradient id="paint3_linear_3085_94583" x1="79" y1="81.5" x2="29.0025" y2="32.0025" gradientUnits="userSpaceOnUse">
<stop stop-color="#3D98BF"/>
<stop offset="1" stop-color="#53B8E0"/>
</linearGradient>
</defs>
</svg>
